<svg width="67" height="66" viewBox="0 0 67 66" fill="none" xmlns="http://www.w3.org/2000/svg">
<path d="M55.2345 13.75H48.1107L40.6535 6.30575C40.3981 6.04989 40.0945 5.84697 39.7603 5.70868C39.426 5.5704 39.0677 5.49948 38.7058 5.5H27.6867C27.3249 5.49948 26.9665 5.5704 26.6323 5.70868C26.298 5.84697 25.9945 6.04989 25.7391 6.30575L18.2819 13.75H11.158C8.11948 13.75 5.64844 16.2168 5.64844 19.25V49.5C5.64844 52.5333 8.11948 55 11.158 55H55.2345C58.2731 55 60.7441 52.5333 60.7441 49.5V19.25C60.7441 16.2168 58.2731 13.75 55.2345 13.75ZM33.1963 46.75C25.7308 46.75 19.4224 40.4525 19.4224 33C19.4224 25.5448 25.7308 19.25 33.1963 19.25C40.6617 19.25 46.9702 25.5448 46.9702 33C46.9702 40.4525 40.6617 46.75 33.1963 46.75Z" fill="url(#paint0_radial_455_4900)"/>
<path d="M35.9527 27.5C35.9527 25.9812 34.7167 24.75 33.1979 24.75C31.6792 24.75 30.4432 25.9812 30.4432 27.5C30.4432 29.0188 29.2072 30.25 27.6884 30.25C26.1696 30.25 24.9336 31.4812 24.9336 33C24.9336 34.5188 26.1696 35.75 27.6884 35.75C29.2072 35.75 30.4432 36.9812 30.4432 38.5C30.4432 40.0188 31.6792 41.25 33.1979 41.25C34.7167 41.25 35.9527 40.0188 35.9527 38.5C35.9527 36.9812 37.1887 35.75 38.7075 35.75C40.2263 35.75 41.4623 34.5188 41.4623 33C41.4623 31.4812 40.2263 30.25 38.7075 30.25C37.1887 30.25 35.9527 29.0188 35.9527 27.5Z" fill="url(#paint1_radial_455_4900)"/>
<defs>
<radialGradient id="paint0_radial_455_4900" cx="0" cy="0" r="1" gradientUnits="userSpaceOnUse" gradientTransform="translate(4.15937 3.22977) rotate(45.0864) scale(80.1438 105.288)">
<stop stop-color="#B1B9DB"/>
<stop offset="0.568588" stop-color="#939CC5"/>
<stop offset="1" stop-color="#B3B9D6"/>
</radialGradient>
<radialGradient id="paint1_radial_455_4900" cx="0" cy="0" r="1" gradientUnits="userSpaceOnUse" gradientTransform="translate(24.4869 23.9933) rotate(48.0987) scale(25.418 33.1976)">
<stop stop-color="#B1B9DB"/>
<stop offset="0.568588" stop-color="#939CC5"/>
<stop offset="1" stop-color="#B3B9D6"/>
</radialGradient>
</defs>
</svg>
