<svg width="25" height="24" viewBox="0 0 25 24" fill="none" xmlns="http://www.w3.org/2000/svg">
<path d="M2.78758 18.6498C2.37722 18.6498 2.03693 18.3098 2.03693 17.8998V12.1998C1.98689 9.4898 2.99776 6.9298 4.8794 5.0098C6.76103 3.0998 9.28322 2.0498 11.9956 2.0498C17.5404 2.0498 22.0543 6.5598 22.0543 12.0998V17.7998C22.0543 18.2098 21.714 18.5498 21.3037 18.5498C20.8933 18.5498 20.553 18.2098 20.553 17.7998V12.0998C20.553 7.3898 16.7197 3.5498 11.9956 3.5498C9.68357 3.5498 7.54171 4.43981 5.95033 6.0598C4.34894 7.68981 3.4982 9.85981 3.53823 12.1798V17.8898C3.53823 18.3098 3.20795 18.6498 2.78758 18.6498Z" fill="white"/>
<path d="M5.97858 12.4502H5.84847C3.74664 12.4502 2.03516 14.1602 2.03516 16.2602V18.1402C2.03516 20.2402 3.74664 21.9502 5.84847 21.9502H5.97858C8.08041 21.9502 9.79189 20.2402 9.79189 18.1402V16.2602C9.79189 14.1602 8.08041 12.4502 5.97858 12.4502Z" fill="white"/>
<path d="M18.2403 12.4502H18.1102C16.0084 12.4502 14.2969 14.1602 14.2969 16.2602V18.1402C14.2969 20.2402 16.0084 21.9502 18.1102 21.9502H18.2403C20.3421 21.9502 22.0536 20.2402 22.0536 18.1402V16.2602C22.0536 14.1602 20.3421 12.4502 18.2403 12.4502Z" fill="white"/>
</svg>
