<svg width="70" height="96" viewBox="0 0 70 96" fill="none" xmlns="http://www.w3.org/2000/svg">
<path d="M70 35.9496C70 53.6273 56.7063 68.2786 40.3261 70.9237C39.5652 71.3494 37.2826 73.6089 35 79.6345C31.1956 71.3494 30.4348 71.3494 29.674 70.9237C13.2937 68.2786 0 53.6273 0 35.9496C0 16.3989 16.0902 0.549805 35 0.549805C53.9098 0.549805 70 16.3989 70 35.9496Z" fill="#2A83E8"/>
<path d="M70 35.9496C70 53.6273 56.7063 68.2786 40.3261 70.9237C39.5652 71.3494 37.2826 73.6089 35 79.6345C31.1956 71.3494 30.4348 71.3494 29.674 70.9237C13.2937 68.2786 0 53.6273 0 35.9496C0 16.3989 16.0902 0.549805 35 0.549805C53.9098 0.549805 70 16.3989 70 35.9496Z" fill="url(#paint0_linear_455_4878)"/>
<path d="M35.0007 44.2342C40.4635 44.2342 44.892 39.8504 44.892 34.4428C44.892 29.0351 40.4635 24.6514 35.0007 24.6514C29.5379 24.6514 25.1094 29.0351 25.1094 34.4428C25.1094 39.8504 29.5379 44.2342 35.0007 44.2342Z" fill="white"/>
<path d="M35.2549 95.4504C38.6167 95.4504 41.3419 92.7527 41.3419 89.4249C41.3419 86.0971 38.6167 83.3994 35.2549 83.3994C31.8932 83.3994 29.168 86.0971 29.168 89.4249C29.168 92.7527 31.8932 95.4504 35.2549 95.4504Z" fill="white"/>
<path d="M35.1255 92.4376C36.8064 92.4376 38.169 91.0888 38.169 89.4249C38.169 87.761 36.8064 86.4121 35.1255 86.4121C33.4446 86.4121 32.082 87.761 32.082 89.4249C32.082 91.0888 33.4446 92.4376 35.1255 92.4376Z" fill="#375DE2"/>
<defs>
<linearGradient id="paint0_linear_455_4878" x1="50" y1="101.5" x2="86.4356" y2="29.4247" gradientUnits="userSpaceOnUse">
<stop stop-color="#4067F0"/>
<stop offset="1" stop-color="#375DE2"/>
</linearGradient>
</defs>
</svg>
