<svg width="27" height="27" viewBox="0 0 27 27" fill="none" xmlns="http://www.w3.org/2000/svg">
<path d="M16.1442 2.25H10.8567C9.68672 2.25 8.73047 3.195 8.73047 4.365V5.4225C8.73047 6.5925 9.67547 7.5375 10.8455 7.5375H16.1442C17.3142 7.5375 18.2592 6.5925 18.2592 5.4225V4.365C18.2705 3.195 17.3142 2.25 16.1442 2.25Z" fill="#5071E6"/>
<path d="M19.393 5.42242C19.393 7.21117 17.9305 8.67367 16.1417 8.67367H10.8542C9.06547 8.67367 7.60297 7.21117 7.60297 5.42242C7.60297 4.79242 6.92797 4.39867 6.36547 4.69117C4.77922 5.53492 3.69922 7.21117 3.69922 9.13492V19.7212C3.69922 22.4887 5.96047 24.7499 8.72797 24.7499H18.268C21.0355 24.7499 23.2967 22.4887 23.2967 19.7212V9.13492C23.2967 7.21117 22.2167 5.53492 20.6305 4.69117C20.068 4.39867 19.393 4.79242 19.393 5.42242Z" fill="#5071E6"/>
<path d="M13.5 12.875V18.125" stroke="white" stroke-width="2" stroke-linecap="round" stroke-linejoin="round"/>
<path d="M10.875 15.5H16.125" stroke="white" stroke-width="2" stroke-linecap="round" stroke-linejoin="round"/>
</svg>
