<svg width="6" height="28" viewBox="0 0 6 28" fill="none" xmlns="http://www.w3.org/2000/svg">
<path d="M0.25 13.9805C0.25 15.3612 1.36929 16.4805 2.75 16.4805C4.13071 16.4805 5.25 15.3612 5.25 13.9805C5.25 12.5998 4.13071 11.4805 2.75 11.4805C1.36929 11.4805 0.25 12.5998 0.25 13.9805Z" fill="#CBD0E4"/>
<path d="M0.25 2.5C0.25 3.88071 1.36929 5 2.75 5C4.13071 5 5.25 3.88071 5.25 2.5C5.25 1.11929 4.13071 -4.89256e-08 2.75 -1.09278e-07C1.36929 -1.69631e-07 0.25 1.11929 0.25 2.5Z" fill="#CBD0E4"/>
<path d="M0.134766 24.7852C0.134765 26.1659 1.25405 27.2852 2.63477 27.2852C4.01548 27.2852 5.13477 26.1659 5.13477 24.7852C5.13477 23.4044 4.01548 22.2852 2.63477 22.2852C1.25405 22.2852 0.134766 23.4044 0.134766 24.7852Z" fill="#CBD0E4"/>
</svg>
