<svg width="34" height="34" viewBox="0 0 34 34" fill="none" xmlns="http://www.w3.org/2000/svg">
<g filter="url(#filter0_i_345_2524)">
<path d="M33.3412 13.7355H31.9987V13.6663H16.9987V20.333H26.4179C25.0437 24.2138 21.3512 26.9997 16.9987 26.9997C11.4762 26.9997 6.9987 22.5222 6.9987 16.9997C6.9987 11.4772 11.4762 6.99967 16.9987 6.99967C19.5479 6.99967 21.867 7.96134 23.6329 9.53217L28.347 4.81801C25.3704 2.04384 21.3887 0.333008 16.9987 0.333008C7.79453 0.333008 0.332031 7.79551 0.332031 16.9997C0.332031 26.2038 7.79453 33.6663 16.9987 33.6663C26.2029 33.6663 33.6654 26.2038 33.6654 16.9997C33.6654 15.8822 33.5504 14.7913 33.3412 13.7355Z" fill="#FFCA29"/>
<path d="M2.25391 9.24217L7.72974 13.258C9.21141 9.58967 12.7997 6.99967 16.9989 6.99967C19.5481 6.99967 21.8672 7.96134 23.6331 9.53217L28.3472 4.81801C25.3706 2.04384 21.3889 0.333008 16.9989 0.333008C10.5972 0.333008 5.04557 3.94717 2.25391 9.24217Z" fill="#E41E1F"/>
<path d="M16.9977 33.6663C21.3027 33.6663 25.2143 32.0188 28.1718 29.3396L23.0135 24.9746C21.2839 26.2899 19.1705 27.0013 16.9977 26.9996C12.6627 26.9996 8.98182 24.2354 7.59516 20.3779L2.16016 24.5654C4.91849 29.9629 10.5202 33.6663 16.9977 33.6663Z" fill="#32B137"/>
<path d="M33.3425 13.7352H32V13.666H17V20.3327H26.4192C25.7618 22.1797 24.5778 23.7937 23.0133 24.9752L23.0158 24.9735L28.1742 29.3385C27.8092 29.6702 33.6667 25.3327 33.6667 16.9993C33.6667 15.8818 33.5517 14.791 33.3425 13.7352Z" fill="#1D82E6"/>
</g>
<defs>
<filter id="filter0_i_345_2524" x="0.332031" y="0.333008" width="33.635" height="33.6335" filterUnits="userSpaceOnUse" color-interpolation-filters="sRGB">
<feFlood flood-opacity="0" result="BackgroundImageFix"/>
<feBlend mode="normal" in="SourceGraphic" in2="BackgroundImageFix" result="shape"/>
<feColorMatrix in="SourceAlpha" type="matrix" values="0 0 0 0 0 0 0 0 0 0 0 0 0 0 0 0 0 0 127 0" result="hardAlpha"/>
<feOffset dx="0.3" dy="0.3"/>
<feGaussianBlur stdDeviation="2.5"/>
<feComposite in2="hardAlpha" operator="arithmetic" k2="-1" k3="1"/>
<feColorMatrix type="matrix" values="0 0 0 0 1 0 0 0 0 1 0 0 0 0 1 0 0 0 0.5 0"/>
<feBlend mode="normal" in2="shape" result="effect1_innerShadow_345_2524"/>
</filter>
</defs>
</svg>
