<svg width="28" height="28" viewBox="0 0 28 28" fill="none" xmlns="http://www.w3.org/2000/svg">
<path d="M25.6663 18.8883C25.6663 23.1349 23.1347 25.6666 18.888 25.6666H17.4997C16.858 25.6666 16.333 25.1416 16.333 24.4999V17.7683C16.333 17.4533 16.5897 17.1849 16.9047 17.1849L18.958 17.1499C19.1213 17.1383 19.2614 17.0216 19.2964 16.8583L19.7047 14.6299C19.7397 14.4199 19.5763 14.2216 19.3547 14.2216L16.8697 14.2566C16.543 14.2566 16.2864 13.9999 16.2747 13.6849L16.228 10.8266C16.228 10.6399 16.3797 10.4766 16.578 10.4766L19.378 10.4299C19.5763 10.4299 19.728 10.2783 19.728 10.0799L19.6813 7.27991C19.6813 7.08157 19.5297 6.92992 19.3314 6.92992L16.1813 6.9766C14.2447 7.0116 12.7047 8.59825 12.7397 10.5349L12.798 13.7433C12.8097 14.0699 12.553 14.3266 12.2264 14.3383L10.8263 14.3616C10.628 14.3616 10.4764 14.5132 10.4764 14.7116L10.5114 16.9283C10.5114 17.1266 10.663 17.2782 10.8613 17.2782L12.2614 17.2549C12.588 17.2549 12.8447 17.5116 12.8563 17.8266L12.9613 24.4766C12.973 25.1299 12.448 25.6666 11.7947 25.6666H9.11134C4.86467 25.6666 2.33301 23.1349 2.33301 18.8766V9.11158C2.33301 4.86492 4.86467 2.33325 9.11134 2.33325H18.888C23.1347 2.33325 25.6663 4.86492 25.6663 9.11158V18.8883Z" fill="#4067F0"/>
</svg>
