<svg width="28" height="28" viewBox="0 0 28 28" fill="none" xmlns="http://www.w3.org/2000/svg">
<path d="M14.0003 1.16675C6.91633 1.16675 1.16699 6.91608 1.16699 14.0001C1.16699 21.0841 6.91633 26.8334 14.0003 26.8334C21.0843 26.8334 26.8337 21.0841 26.8337 14.0001C26.8337 6.91608 21.0843 1.16675 14.0003 1.16675ZM14.0003 7.73741C15.6815 7.73741 17.0547 9.11058 17.0547 10.7917C17.0547 12.4729 15.6815 13.8461 14.0003 13.8461C12.3192 13.8461 10.946 12.4729 10.946 10.7917C10.946 9.11058 12.3192 7.73741 14.0003 7.73741ZM17.1701 20.5322C16.9905 20.6734 16.7852 20.7376 16.5798 20.7376C16.2975 20.7376 16.0151 20.6092 15.8226 20.3782L14.0132 18.0939L12.2036 20.3782C11.8828 20.7889 11.2668 20.8659 10.8561 20.5322C10.4455 20.1986 10.3685 19.5954 10.7021 19.1848L12.2293 17.2469C11.8187 17.1314 11.408 16.9902 11.023 16.7977C10.5481 16.5539 10.3556 15.9764 10.5995 15.5016C10.8305 15.0268 11.408 14.8342 11.8956 15.0781C13.2303 15.7454 14.8216 15.7454 16.1563 15.0781C16.6183 14.8471 17.2086 15.0268 17.4396 15.4888C17.6835 15.9508 17.5167 16.5283 17.0547 16.7721C16.6568 16.9774 16.2333 17.1186 15.8098 17.2341L17.3498 19.1719C17.645 19.5954 17.5808 20.1986 17.1701 20.5322Z" fill="#FF7A00"/>
</svg>
