<svg width="26" height="26" viewBox="0 0 26 26" fill="none" xmlns="http://www.w3.org/2000/svg">
<path d="M13 0C5.824 0 0 5.824 0 13C0 20.176 5.824 26 13 26C20.176 26 26 20.176 26 13C26 5.824 20.176 0 13 0Z" fill="#00A3FF"/>
<path d="M18.0898 8.69615L16.2413 17.4133C16.1018 18.0285 15.7382 18.1816 15.2215 17.892L12.4049 15.8165L11.046 17.1237C10.8955 17.2742 10.77 17.3998 10.4799 17.3998L10.6825 14.5315L15.9023 9.81484C16.1293 9.61271 15.8528 9.50028 15.5496 9.70284L9.09652 13.7663L6.31839 12.8966C5.71421 12.708 5.70327 12.2924 6.44439 12.0023L17.3106 7.8159C17.8137 7.62734 18.2538 7.9279 18.0898 8.69659V8.69615Z" fill="white"/>
</svg>
