<svg width="29" height="8" viewBox="0 0 29 8" fill="none" xmlns="http://www.w3.org/2000/svg">
<path d="M14.5484 7.02555C16.2428 7.02555 17.6164 5.65198 17.6164 3.9576C17.6164 2.26322 16.2428 0.889648 14.5484 0.889648C12.854 0.889648 11.4805 2.26322 11.4805 3.9576C11.4805 5.65198 12.854 7.02555 14.5484 7.02555Z" fill="#CBD0E4"/>
<path d="M3.06795 7.02555C4.76233 7.02555 6.1359 5.65198 6.1359 3.9576C6.1359 2.26322 4.76233 0.889648 3.06795 0.889648C1.37357 0.889648 0 2.26322 0 3.9576C0 5.65198 1.37357 7.02555 3.06795 7.02555Z" fill="#CBD0E4"/>
<path d="M25.3531 7.13981C27.0475 7.13981 28.4211 5.76624 28.4211 4.07186C28.4211 2.37747 27.0475 1.00391 25.3531 1.00391C23.6587 1.00391 22.2852 2.37747 22.2852 4.07186C22.2852 5.76624 23.6587 7.13981 25.3531 7.13981Z" fill="#CBD0E4"/>
</svg>
