<svg width="13" height="14" viewBox="0 0 13 14" fill="none" xmlns="http://www.w3.org/2000/svg">
<path d="M0.308601 12.4238C-0.00960679 12.8057 0.0419849 13.3732 0.423834 13.6914C0.805683 14.0096 1.37319 13.958 1.6914 13.5762L0.308601 12.4238ZM11.8963 0.918518C11.8513 0.423503 11.4135 0.0586946 10.9185 0.103697L2.85178 0.837036C2.35677 0.882037 1.99196 1.31981 2.03696 1.81482C2.08196 2.30984 2.51973 2.67465 3.01475 2.62964L10.1852 1.97779L10.837 9.14822C10.882 9.64323 11.3198 10.008 11.8148 9.96304C12.3098 9.91804 12.6746 9.48027 12.6296 8.98525L11.8963 0.918518ZM1.6914 13.5762L11.6914 1.57617L10.3086 0.423834L0.308601 12.4238L1.6914 13.5762Z" fill="white"/>
</svg>
