<svg width="22" height="22" viewBox="0 0 22 22" fill="none" xmlns="http://www.w3.org/2000/svg">
<path d="M19.4779 8.38786C17.3604 5.06036 14.262 3.14453 10.9987 3.14453C9.36703 3.14453 7.7812 3.6212 6.33286 4.51036C4.88453 5.4087 3.58286 6.71953 2.51953 8.38786C1.60286 9.82703 1.60286 12.1645 2.51953 13.6037C4.63703 16.9404 7.73536 18.847 10.9987 18.847C12.6304 18.847 14.2162 18.3704 15.6645 17.4812C17.1129 16.5829 18.4145 15.272 19.4779 13.6037C20.3945 12.1737 20.3945 9.82703 19.4779 8.38786ZM10.9987 14.7037C8.94536 14.7037 7.29536 13.0445 7.29536 11.0004C7.29536 8.9562 8.94536 7.29703 10.9987 7.29703C13.052 7.29703 14.702 8.9562 14.702 11.0004C14.702 13.0445 13.052 14.7037 10.9987 14.7037Z" fill="#CBD0E4"/>
<path d="M10.9992 8.37891C9.56005 8.37891 8.38672 9.55224 8.38672 11.0006C8.38672 12.4397 9.56005 13.6131 10.9992 13.6131C12.4384 13.6131 13.6209 12.4397 13.6209 11.0006C13.6209 9.56141 12.4384 8.37891 10.9992 8.37891Z" fill="#CBD0E4"/>
</svg>
