<svg width="22" height="22" viewBox="0 0 22 22" fill="none" xmlns="http://www.w3.org/2000/svg">
<path d="M8.2487 1.83301C5.84703 1.83301 3.89453 3.78551 3.89453 6.18717C3.89453 8.54301 5.73703 10.4497 8.1387 10.5322C8.21203 10.523 8.28537 10.523 8.34037 10.5322C8.3587 10.5322 8.36786 10.5322 8.3862 10.5322C8.39536 10.5322 8.39537 10.5322 8.40453 10.5322C10.7512 10.4497 12.5937 8.54301 12.6029 6.18717C12.6029 3.78551 10.6504 1.83301 8.2487 1.83301Z" fill="#CBD0E4"/>
<path d="M12.9069 12.9711C10.3494 11.2661 6.17854 11.2661 3.60271 12.9711C2.43854 13.7503 1.79688 14.8045 1.79688 15.932C1.79688 17.0595 2.43854 18.1045 3.59354 18.8745C4.87687 19.7361 6.56354 20.167 8.25021 20.167C9.93687 20.167 11.6235 19.7361 12.9069 18.8745C14.0619 18.0953 14.7035 17.0503 14.7035 15.9136C14.6944 14.7861 14.0619 13.7411 12.9069 12.9711Z" fill="#CBD0E4"/>
<path d="M18.3236 6.7281C18.4703 8.50643 17.2053 10.0648 15.4544 10.2756C15.4453 10.2756 15.4453 10.2756 15.4361 10.2756H15.4086C15.3536 10.2756 15.2986 10.2756 15.2528 10.2939C14.3636 10.3398 13.5478 10.0556 12.9336 9.5331C13.8778 8.68976 14.4186 7.42477 14.3086 6.04977C14.2444 5.30727 13.9878 4.62893 13.6028 4.05143C13.9511 3.87727 14.3544 3.76727 14.7669 3.7306C16.5636 3.57477 18.1678 4.9131 18.3236 6.7281Z" fill="#CBD0E4"/>
<path d="M20.1576 15.2075C20.0842 16.0967 19.5159 16.8667 18.5626 17.3892C17.6459 17.8934 16.4909 18.1317 15.3451 18.1042C16.0051 17.5084 16.3901 16.7659 16.4634 15.9775C16.5551 14.8409 16.0142 13.75 14.9326 12.8792C14.3184 12.3934 13.6034 12.0084 12.8242 11.7242C14.8501 11.1375 17.3984 11.5317 18.9659 12.7967C19.8092 13.475 20.2401 14.3275 20.1576 15.2075Z" fill="#CBD0E4"/>
</svg>
