<svg width="26" height="26" viewBox="0 0 26 26" fill="none" xmlns="http://www.w3.org/2000/svg">
<path d="M24 8.52V3.98C24 2.57 23.36 2 21.77 2H17.73C16.14 2 15.5 2.57 15.5 3.98V8.51C15.5 9.93 16.14 10.49 17.73 10.49H21.77C23.36 10.5 24 9.93 24 8.52Z" stroke="#B9BECD" stroke-width="2.2" stroke-linecap="round" stroke-linejoin="round"/>
<path d="M24 21.7602V17.7202C24 16.1302 23.36 15.4902 21.77 15.4902H17.73C16.14 15.4902 15.5 16.1302 15.5 17.7202V21.7602C15.5 23.3502 16.14 23.9902 17.73 23.9902H21.77C23.36 23.9902 24 23.3502 24 21.7602Z" stroke="#B9BECD" stroke-width="2.2" stroke-linecap="round" stroke-linejoin="round"/>
<path d="M10.5 8.52V3.98C10.5 2.57 9.86 2 8.27 2H4.23C2.64 2 2 2.57 2 3.98V8.51C2 9.93 2.64 10.49 4.23 10.49H8.27C9.86 10.5 10.5 9.93 10.5 8.52Z" stroke="#B9BECD" stroke-width="2.2" stroke-linecap="round" stroke-linejoin="round"/>
<path d="M10.5 21.7602V17.7202C10.5 16.1302 9.86 15.4902 8.27 15.4902H4.23C2.64 15.4902 2 16.1302 2 17.7202V21.7602C2 23.3502 2.64 23.9902 4.23 23.9902H8.27C9.86 23.9902 10.5 23.3502 10.5 21.7602Z" stroke="#B9BECD" stroke-width="2.2" stroke-linecap="round" stroke-linejoin="round"/>
</svg>
