<svg width="46" height="46" viewBox="0 0 46 46" fill="none" xmlns="http://www.w3.org/2000/svg">
<rect width="46" height="46" rx="12" fill="#4BC66D" fill-opacity="0.43"/>
<path d="M21.6 16.15C21.6 16.34 21.44 16.5 21.25 16.5H20.12C17.96 16.5 16.2 18.26 16.2 20.42V29.65C16.2 29.84 16.04 30 15.85 30H15.15C13.96 30 13 29.04 13 27.85V16.15C13 14.96 13.96 14 15.15 14H19.45C20.64 14 21.6 14.96 21.6 16.15Z" fill="white"/>
<path d="M33.0004 16.15V27.85C33.0004 29.04 32.0404 30 30.8504 30H30.2204C30.0304 30 29.8704 29.84 29.8704 29.65V20.42C29.8704 18.26 28.1104 16.5 25.9504 16.5H24.7504C24.5604 16.5 24.4004 16.34 24.4004 16.15C24.4004 14.96 25.3604 14 26.5504 14H30.8504C32.0404 14 33.0004 14.96 33.0004 16.15Z" fill="white"/>
<path d="M25.9492 18H20.1192C18.7792 18 17.6992 19.08 17.6992 20.42V31.58C17.6992 32.92 18.7792 34 20.1192 34H21.7492C22.0292 34 22.2492 33.78 22.2492 33.5V31C22.2492 30.59 22.5892 30.25 22.9992 30.25C23.4092 30.25 23.7492 30.59 23.7492 31V33.5C23.7492 33.78 23.9692 34 24.2492 34H25.9592C27.2892 34 28.3692 32.92 28.3692 31.59V20.42C28.3692 19.08 27.2892 18 25.9492 18ZM24.9992 26.75H20.9992C20.5892 26.75 20.2492 26.41 20.2492 26C20.2492 25.59 20.5892 25.25 20.9992 25.25H24.9992C25.4092 25.25 25.7492 25.59 25.7492 26C25.7492 26.41 25.4092 26.75 24.9992 26.75ZM24.9992 23.75H20.9992C20.5892 23.75 20.2492 23.41 20.2492 23C20.2492 22.59 20.5892 22.25 20.9992 22.25H24.9992C25.4092 22.25 25.7492 22.59 25.7492 23C25.7492 23.41 25.4092 23.75 24.9992 23.75Z" fill="white"/>
</svg>
