<svg width="46" height="47" viewBox="0 0 46 47" fill="none" xmlns="http://www.w3.org/2000/svg">
<rect y="0.226562" width="46" height="46" rx="12" fill="#F0407F" fill-opacity="0.43"/>
<path d="M30.4 26C30.2669 26.3016 30.2272 26.6362 30.286 26.9606C30.3448 27.285 30.4995 27.5843 30.73 27.82L30.79 27.88C30.976 28.0657 31.1235 28.2863 31.2241 28.5291C31.3248 28.7719 31.3766 29.0322 31.3766 29.295C31.3766 29.5578 31.3248 29.8181 31.2241 30.0609C31.1235 30.3037 30.976 30.5243 30.79 30.71C30.6043 30.896 30.3837 31.0435 30.1409 31.1441C29.8981 31.2448 29.6378 31.2966 29.375 31.2966C29.1122 31.2966 28.8519 31.2448 28.6091 31.1441C28.3663 31.0435 28.1457 30.896 27.96 30.71L27.9 30.65C27.6643 30.4195 27.365 30.2648 27.0406 30.206C26.7162 30.1472 26.3816 30.1869 26.08 30.32C25.7842 30.4468 25.532 30.6572 25.3543 30.9255C25.1766 31.1938 25.0813 31.5082 25.08 31.83V32C25.08 32.5304 24.8693 33.0391 24.4942 33.4142C24.1191 33.7893 23.6104 34 23.08 34C22.5496 34 22.0409 33.7893 21.6658 33.4142C21.2907 33.0391 21.08 32.5304 21.08 32V31.91C21.0723 31.579 20.9651 31.258 20.7725 30.9887C20.5799 30.7194 20.3107 30.5143 20 30.4C19.6984 30.2669 19.3638 30.2272 19.0394 30.286C18.715 30.3448 18.4157 30.4995 18.18 30.73L18.12 30.79C17.9343 30.976 17.7137 31.1235 17.4709 31.2241C17.2281 31.3248 16.9678 31.3766 16.705 31.3766C16.4422 31.3766 16.1819 31.3248 15.9391 31.2241C15.6963 31.1235 15.4757 30.976 15.29 30.79C15.104 30.6043 14.9565 30.3837 14.8559 30.1409C14.7552 29.8981 14.7034 29.6378 14.7034 29.375C14.7034 29.1122 14.7552 28.8519 14.8559 28.6091C14.9565 28.3663 15.104 28.1457 15.29 27.96L15.35 27.9C15.5805 27.6643 15.7352 27.365 15.794 27.0406C15.8528 26.7162 15.8131 26.3816 15.68 26.08C15.5532 25.7842 15.3428 25.532 15.0745 25.3543C14.8062 25.1766 14.4918 25.0813 14.17 25.08H14C13.4696 25.08 12.9609 24.8693 12.5858 24.4942C12.2107 24.1191 12 23.6104 12 23.08C12 22.5496 12.2107 22.0409 12.5858 21.6658C12.9609 21.2907 13.4696 21.08 14 21.08H14.09C14.421 21.0723 14.742 20.9651 15.0113 20.7725C15.2806 20.5799 15.4857 20.3107 15.6 20C15.7331 19.6984 15.7728 19.3638 15.714 19.0394C15.6552 18.715 15.5005 18.4157 15.27 18.18L15.21 18.12C15.024 17.9343 14.8765 17.7137 14.7759 17.4709C14.6752 17.2281 14.6234 16.9678 14.6234 16.705C14.6234 16.4422 14.6752 16.1819 14.7759 15.9391C14.8765 15.6963 15.024 15.4757 15.21 15.29C15.3957 15.104 15.6163 14.9565 15.8591 14.8559C16.1019 14.7552 16.3622 14.7034 16.625 14.7034C16.8878 14.7034 17.1481 14.7552 17.3909 14.8559C17.6337 14.9565 17.8543 15.104 18.04 15.29L18.1 15.35C18.3357 15.5805 18.635 15.7352 18.9594 15.794C19.2838 15.8528 19.6184 15.8131 19.92 15.68H20C20.2958 15.5532 20.548 15.3428 20.7257 15.0745C20.9034 14.8062 20.9987 14.4918 21 14.17V14C21 13.4696 21.2107 12.9609 21.5858 12.5858C21.9609 12.2107 22.4696 12 23 12C23.5304 12 24.0391 12.2107 24.4142 12.5858C24.7893 12.9609 25 13.4696 25 14V14.09C25.0013 14.4118 25.0966 14.7262 25.2743 14.9945C25.452 15.2628 25.7042 15.4732 26 15.6C26.3016 15.7331 26.6362 15.7728 26.9606 15.714C27.285 15.6552 27.5843 15.5005 27.82 15.27L27.88 15.21C28.0657 15.024 28.2863 14.8765 28.5291 14.7759C28.7719 14.6752 29.0322 14.6234 29.295 14.6234C29.5578 14.6234 29.8181 14.6752 30.0609 14.7759C30.3037 14.8765 30.5243 15.024 30.71 15.21C30.896 15.3957 31.0435 15.6163 31.1441 15.8591C31.2448 16.1019 31.2966 16.3622 31.2966 16.625C31.2966 16.8878 31.2448 17.1481 31.1441 17.3909C31.0435 17.6337 30.896 17.8543 30.71 18.04L30.65 18.1C30.4195 18.3357 30.2648 18.635 30.206 18.9594C30.1472 19.2838 30.1869 19.6184 30.32 19.92V20C30.4468 20.2958 30.6572 20.548 30.9255 20.7257C31.1938 20.9034 31.5082 20.9987 31.83 21H32C32.5304 21 33.0391 21.2107 33.4142 21.5858C33.7893 21.9609 34 22.4696 34 23C34 23.5304 33.7893 24.0391 33.4142 24.4142C33.0391 24.7893 32.5304 25 32 25H31.91C31.5882 25.0013 31.2738 25.0966 31.0055 25.2743C30.7372 25.452 30.5268 25.7042 30.4 26Z" fill="white"/>
<path d="M23 26C24.6569 26 26 24.6569 26 23C26 21.3431 24.6569 20 23 20C21.3431 20 20 21.3431 20 23C20 24.6569 21.3431 26 23 26Z" fill="#F9A8C6"/>
</svg>
