<svg width="46" height="47" viewBox="0 0 46 47" fill="none" xmlns="http://www.w3.org/2000/svg">
<rect y="0.226562" width="46" height="46" rx="12" fill="#405CF0" fill-opacity="0.43"/>
<path d="M32.0891 18.9795C31.2391 18.0395 29.8191 17.5695 27.7591 17.5695H27.5191V17.5295C27.5191 15.8495 27.5191 13.7695 23.7591 13.7695H22.2391C18.4791 13.7695 18.4791 15.8595 18.4791 17.5295V17.5795H18.2391C16.1691 17.5795 14.7591 18.0495 13.9091 18.9895C12.9191 20.0895 12.9491 21.5695 13.0491 22.5795L13.0591 22.6495L13.1365 23.4628C13.1508 23.6126 13.2314 23.7479 13.3573 23.8303C13.5971 23.9872 13.9985 24.2459 14.2391 24.3795C14.3791 24.4695 14.5291 24.5495 14.6791 24.6295C16.3891 25.5695 18.2691 26.1995 20.1791 26.5095C20.2691 27.4495 20.6791 28.5495 22.8691 28.5495C25.0591 28.5495 25.4891 27.4595 25.5591 26.4895C27.5991 26.1595 29.5691 25.4495 31.3491 24.4095C31.4091 24.3795 31.4491 24.3495 31.4991 24.3195C31.8958 24.0953 32.3074 23.819 32.6825 23.5484C32.7955 23.4668 32.8678 23.3408 32.8832 23.2023L32.8991 23.0595L32.9491 22.5895C32.9591 22.5295 32.9591 22.4795 32.9691 22.4095C33.0491 21.3995 33.0291 20.0195 32.0891 18.9795ZM24.0891 25.8295C24.0891 26.8895 24.0891 27.0495 22.8591 27.0495C21.6291 27.0495 21.6291 26.8595 21.6291 25.8395V24.5795H24.0891V25.8295ZM19.9091 17.5695V17.5295C19.9091 15.8295 19.9091 15.1995 22.2391 15.1995H23.7591C26.0891 15.1995 26.0891 15.8395 26.0891 17.5295V17.5795H19.9091V17.5695Z" fill="white"/>
<path d="M31.8733 25.7339C32.2269 25.5656 32.6342 25.8459 32.5988 26.2359L32.2398 30.1897C32.0298 32.1897 31.2098 34.2297 26.8098 34.2297H19.1898C14.7898 34.2297 13.9698 32.1897 13.7598 30.1997L13.4191 26.4519C13.3841 26.0664 13.782 25.7865 14.1347 25.946C15.2741 26.4615 17.3772 27.3761 18.6764 27.7164C18.8407 27.7594 18.9736 27.877 19.0456 28.0309C19.6525 29.329 20.969 30.0197 22.8698 30.0197C24.752 30.0197 26.085 29.3024 26.694 28.0011C26.766 27.8471 26.8991 27.7296 27.0635 27.6863C28.443 27.3233 30.6816 26.301 31.8733 25.7339Z" fill="white"/>
</svg>
