<svg width="46" height="46" viewBox="0 0 46 46" fill="none" xmlns="http://www.w3.org/2000/svg">
<rect width="46" height="46" rx="12" fill="#CED3EE"/>
<path d="M31.2102 18.8204L23.5102 23.2804C23.2002 23.4604 22.8102 23.4604 22.4902 23.2804L14.7902 18.8204C14.2402 18.5004 14.1002 17.7504 14.5202 17.2804C14.8102 16.9504 15.1402 16.6804 15.4902 16.4904L20.9102 13.4904C22.0702 12.8404 23.9502 12.8404 25.1102 13.4904L30.5302 16.4904C30.8802 16.6804 31.2102 16.9604 31.5002 17.2804C31.9002 17.7504 31.7602 18.5004 31.2102 18.8204Z" fill="white"/>
<path d="M22.4305 25.1399V31.9599C22.4305 32.7199 21.6605 33.2199 20.9805 32.8899C18.9205 31.8799 15.4505 29.9899 15.4505 29.9899C14.2305 29.2999 13.2305 27.5599 13.2305 26.1299V20.9699C13.2305 20.1799 14.0605 19.6799 14.7405 20.0699L21.9305 24.2399C22.2305 24.4299 22.4305 24.7699 22.4305 25.1399Z" fill="white"/>
<path d="M23.5703 25.1399V31.9599C23.5703 32.7199 24.3403 33.2199 25.0203 32.8899C27.0803 31.8799 30.5503 29.9899 30.5503 29.9899C31.7703 29.2999 32.7703 27.5599 32.7703 26.1299V20.9699C32.7703 20.1799 31.9403 19.6799 31.2603 20.0699L24.0703 24.2399C23.7703 24.4299 23.5703 24.7699 23.5703 25.1399Z" fill="white"/>
</svg>
