<svg width="444" height="2" viewBox="0 0 444 2" fill="none" xmlns="http://www.w3.org/2000/svg">
<rect x="162" width="2" height="4" rx="1" transform="rotate(90 162 0)" fill="#D8DCE7"/>
<rect x="215" width="2" height="4" rx="1" transform="rotate(90 215 0)" fill="#D8DCE7"/>
<rect x="144" width="2" height="4" rx="1" transform="rotate(90 144 0)" fill="#D8DCE7"/>
<rect x="197" width="2" height="4" rx="1" transform="rotate(90 197 0)" fill="#D8DCE7"/>
<rect x="126" width="2" height="4" rx="1" transform="rotate(90 126 0)" fill="#D8DCE7"/>
<rect x="179" width="2" height="4" rx="1" transform="rotate(90 179 0)" fill="#D8DCE7"/>
<rect x="109" width="2" height="4" rx="1" transform="rotate(90 109 0)" fill="#D8DCE7"/>
<rect x="91" width="2" height="4" rx="1" transform="rotate(90 91 0)" fill="#D8DCE7"/>
<rect x="74" width="2" height="4" rx="1" transform="rotate(90 74 0)" fill="#D8DCE7"/>
<rect x="57" width="2" height="4" rx="1" transform="rotate(90 57 0)" fill="#D8DCE7"/>
<rect x="39" width="2" height="4" rx="1" transform="rotate(90 39 0)" fill="#D8DCE7"/>
<rect x="21" width="2" height="4" rx="1" transform="rotate(90 21 0)" fill="#D8DCE7"/>
<rect x="4" width="2" height="4" rx="1" transform="rotate(90 4 0)" fill="#D8DCE7"/>
<rect x="391" width="2" height="4" rx="1" transform="rotate(90 391 0)" fill="#D8DCE7"/>
<rect x="444" width="2" height="4" rx="1" transform="rotate(90 444 0)" fill="#D8DCE7"/>
<rect x="373" width="2" height="4" rx="1" transform="rotate(90 373 0)" fill="#D8DCE7"/>
<rect x="426" width="2" height="4" rx="1" transform="rotate(90 426 0)" fill="#D8DCE7"/>
<rect x="355" width="2" height="4" rx="1" transform="rotate(90 355 0)" fill="#D8DCE7"/>
<rect x="408" width="2" height="4" rx="1" transform="rotate(90 408 0)" fill="#D8DCE7"/>
<rect x="338" width="2" height="4" rx="1" transform="rotate(90 338 0)" fill="#D8DCE7"/>
<rect x="320" width="2" height="4" rx="1" transform="rotate(90 320 0)" fill="#D8DCE7"/>
<rect x="303" width="2" height="4" rx="1" transform="rotate(90 303 0)" fill="#D8DCE7"/>
<rect x="286" width="2" height="4" rx="1" transform="rotate(90 286 0)" fill="#D8DCE7"/>
<rect x="268" width="2" height="4" rx="1" transform="rotate(90 268 0)" fill="#D8DCE7"/>
<rect x="250" width="2" height="4" rx="1" transform="rotate(90 250 0)" fill="#D8DCE7"/>
<rect x="233" width="2" height="4" rx="1" transform="rotate(90 233 0)" fill="#D8DCE7"/>
</svg>
