<svg width="388" height="405" viewBox="0 0 388 405" fill="none" xmlns="http://www.w3.org/2000/svg">
<path d="M371.543 403.686C379.774 403.686 386.446 397.014 386.446 388.784L386.446 224.272C386.446 216.905 382.764 210.025 376.634 205.939C373.9 204.116 373.9 200.097 376.634 198.274C382.764 194.188 386.446 187.308 386.446 179.941L386.446 15.7025C386.446 7.47192 379.774 0.799713 371.543 0.799713L15.7031 0.79971C7.47248 0.79971 0.8003 7.47192 0.800299 15.7025L0.800297 180.274C0.800297 187.394 4.46576 194.012 10.501 197.79C13.6888 199.785 13.6888 204.428 10.501 206.423C4.46576 210.201 0.800296 216.819 0.800296 223.939L0.800293 388.784C0.800293 397.014 7.4725 403.686 15.7031 403.686L371.543 403.686Z" fill="white" stroke="#4067F0" stroke-width="1.6"/>
</svg>
