<svg width="184" height="290" viewBox="0 0 184 290" fill="none" xmlns="http://www.w3.org/2000/svg">
<path d="M168.297 289.2C176.528 289.2 183.2 282.528 183.2 274.297L183.2 156.013C183.2 148.657 179.523 141.788 173.402 137.709C170.671 135.889 170.671 131.875 173.402 130.055C179.523 125.976 183.2 119.107 183.2 111.752L183.2 15.7028C183.2 7.4722 176.528 0.799988 168.297 0.799988L15.7028 0.799986C7.47222 0.799986 0.800008 7.4722 0.800008 15.7028L0.800006 110.473C0.800006 118.432 5.297 125.707 12.4157 129.265C16.221 131.167 16.221 136.597 12.4157 138.499C5.297 142.057 0.800005 149.333 0.800005 157.291L0.800003 274.297C0.800003 282.528 7.4722 289.2 15.7028 289.2L168.297 289.2Z" fill="white" stroke="#4067F0" stroke-width="1.6"/>
</svg>
