<svg width="352" height="469" viewBox="0 0 352 469" fill="none" xmlns="http://www.w3.org/2000/svg">
<path d="M322 467.9C337.961 467.9 350.9 454.961 350.9 439L350.9 260.347C350.9 246.129 343.794 232.852 331.964 224.965C326.994 221.652 326.994 214.348 331.964 211.035C343.794 203.148 350.9 189.871 350.9 175.653L350.9 30C350.9 14.039 337.961 1.10001 322 1.10001L30 1.1C14.039 1.1 1.10001 14.039 1.10001 30L1.10001 173.208C1.10001 188.598 9.79548 202.668 23.5612 209.551C30.5237 213.032 30.5238 222.968 23.5612 226.449C9.79548 233.332 1.10001 247.402 1.10001 262.792L1.10001 439C1.10001 454.961 14.039 467.9 30 467.9L322 467.9Z" fill="white" stroke="#4067F0" stroke-width="2.2"/>
</svg>
