<svg width="858" height="264" viewBox="0 0 858 264" fill="none" xmlns="http://www.w3.org/2000/svg">
<path d="M856.4 30C856.4 14.039 843.461 1.10002 827.5 1.10002L334.985 1.10002C324.43 1.10002 314.327 5.38992 306.996 12.9852L300.879 19.3233C298.48 21.8083 294.499 21.8083 292.1 19.3233L285.983 12.9851C278.652 5.38992 268.549 1.10002 257.994 1.10002L30 1.10002C14.0389 1.10002 1.09998 14.039 1.09998 30L1.09998 234C1.09998 249.961 14.039 262.9 30 262.9L254.554 262.9C267.03 262.9 278.749 256.916 286.064 246.81L291.548 239.234C293.984 235.87 298.995 235.87 301.431 239.234L306.915 246.81C314.23 256.916 325.949 262.9 338.425 262.9L827.5 262.9C843.461 262.9 856.4 249.961 856.4 234L856.4 30Z" fill="white" stroke="#4067F0" stroke-width="2.2"/>
</svg>
