<svg width="17" height="16" viewBox="0 0 17 16" fill="none" xmlns="http://www.w3.org/2000/svg">
<path d="M12.8819 5.92C14.2405 5.92 15.3419 4.81862 15.3419 3.46C15.3419 2.10138 14.2405 1 12.8819 1C11.5232 1 10.4219 2.10138 10.4219 3.46C10.4219 4.81862 11.5232 5.92 12.8819 5.92Z" stroke="#BECDFF" stroke-width="2" stroke-miterlimit="10" stroke-linecap="round" stroke-linejoin="round"/>
<path d="M3.96001 5.92C5.31863 5.92 6.42 4.81862 6.42 3.46C6.42 2.10138 5.31863 1 3.96001 1C2.60139 1 1.5 2.10138 1.5 3.46C1.5 4.81862 2.60139 5.92 3.96001 5.92Z" stroke="#BECDFF" stroke-width="2" stroke-miterlimit="10" stroke-linecap="round" stroke-linejoin="round"/>
<path d="M12.8819 14.8399C14.2405 14.8399 15.3419 13.7385 15.3419 12.3799C15.3419 11.0213 14.2405 9.91992 12.8819 9.91992C11.5232 9.91992 10.4219 11.0213 10.4219 12.3799C10.4219 13.7385 11.5232 14.8399 12.8819 14.8399Z" stroke="#BECDFF" stroke-width="2" stroke-miterlimit="10" stroke-linecap="round" stroke-linejoin="round"/>
<path d="M3.96001 14.8399C5.31863 14.8399 6.42 13.7385 6.42 12.3799C6.42 11.0213 5.31863 9.91992 3.96001 9.91992C2.60139 9.91992 1.5 11.0213 1.5 12.3799C1.5 13.7385 2.60139 14.8399 3.96001 14.8399Z" stroke="#BECDFF" stroke-width="2" stroke-miterlimit="10" stroke-linecap="round" stroke-linejoin="round"/>
</svg>
