<svg width="249" height="38" viewBox="0 0 249 38" fill="none" xmlns="http://www.w3.org/2000/svg">
<path d="M111.066 36.4852C117.894 36.4852 121.015 33.6761 121.015 27.5508V14.793H114.031V27.5508C114.031 29.9697 113.095 31.0621 111.066 31.0621C109.076 31.0621 108.14 29.9697 108.14 27.5508V14.793H101.156V27.5508C101.156 33.6761 104.277 36.4852 111.066 36.4852Z" fill="#3278FF"/>
<path d="M9.53592 20.246L9.53633 20.2462L9.60302 20.2762C11.3112 21.0438 13.137 21.8643 14.5355 23.1195C15.9679 24.4051 16.9502 26.1434 16.9502 28.7212C16.9502 31.2068 16.0659 33.2432 14.476 34.6554C12.8896 36.0644 10.6265 36.8294 7.90562 36.8294C5.60552 36.8294 2.99596 36.2754 0.897932 35.4045L0.717137 35.3295L0.734859 35.1345L0.968948 32.5595L1.00453 32.1681L1.35481 32.3464C3.54656 33.4615 5.84635 34.0341 7.8666 34.0341C9.67316 34.0341 11.1388 33.5398 12.1479 32.6919C13.1524 31.8479 13.7257 30.6367 13.7257 29.1503V29.0333C13.7257 27.3486 13.0288 26.1899 11.9513 25.271C10.8587 24.3392 9.38413 23.6615 7.83468 22.9554L9.53592 20.246ZM9.53592 20.246C8.04414 19.5787 6.66624 18.9589 5.65581 18.1279C4.66126 17.3099 4.03628 16.2981 4.03628 14.8319V14.7149C4.03628 13.3675 4.5686 12.2736 5.49491 11.5116C6.42624 10.7454 7.77581 10.2993 9.42719 10.2993C11.1335 10.2993 13.0849 10.7929 15.2083 11.758L15.5604 11.9181L15.5842 11.532L15.7402 8.99606L15.752 8.8054L15.5751 8.73321C13.6306 7.93953 11.2945 7.50401 9.31015 7.50401C6.78205 7.50401 4.6567 8.24092 3.1596 9.56548C1.65936 10.8928 0.811795 12.7916 0.811795 15.066C0.811795 17.4119 1.7276 19.0134 3.076 20.2148C4.40764 21.4013 6.16173 22.1967 7.82945 22.953L7.83423 22.9552L9.53592 20.246ZM30.7506 36.312L30.9437 36.2568V36.056V33.8711V33.5018L30.5933 33.6186C29.9232 33.8419 29.0551 33.956 28.3756 33.956C27.495 33.956 26.8788 33.6925 26.4746 33.1999C26.062 32.6971 25.8328 31.9108 25.8328 30.789V17.5171H30.6775H30.9437V17.2508V15.105V14.8388H30.6775H25.8328V9.60394V9.30749L25.538 9.33924L23.002 9.61234L22.7643 9.63794V9.87704V14.8388H19.5973H19.331V15.105V17.2508V17.5171H19.5973H22.7643V31.1791C22.7643 33.0048 23.1503 34.4074 23.9868 35.3544C24.8293 36.3081 26.085 36.7514 27.7123 36.7514C28.6339 36.7514 29.6339 36.631 30.7506 36.312ZM50.206 35.3646L50.3837 35.2888L50.3669 35.0963L50.1718 32.8725L50.1384 32.492L49.793 32.655C47.7546 33.6165 45.6865 34.1121 43.8203 34.1121C41.6318 34.1121 39.9569 33.4575 38.8105 32.1723C37.6977 30.9249 37.0495 29.0467 36.9547 26.4905H50.96H51.2262V26.2242V25.561C51.2262 21.9443 50.5296 19.1475 49.1309 17.249C47.722 15.3366 45.627 14.3706 42.9229 14.3706C40.0621 14.3706 37.7674 15.4244 36.1944 17.397C34.6279 19.3614 33.8003 22.2074 33.8003 25.7561C33.8003 29.3042 34.6278 32.0599 36.2863 33.9307C37.9496 35.8071 40.4113 36.7514 43.5862 36.7514C45.8088 36.7514 48.068 36.2752 50.206 35.3646ZM59.2253 36.2832H59.4915V36.017V23.025C59.4915 21.2282 60.0581 19.7567 61.0277 18.7363C61.996 17.7173 63.3864 17.1269 65.0775 17.1269C66.6009 17.1269 67.7287 17.595 68.4806 18.4595C69.238 19.3302 69.6491 20.6431 69.6491 22.4008V36.017V36.2832H69.9154H72.4903H72.7566V36.017V22.1277C72.7566 19.6696 72.1621 17.725 70.9881 16.3921C69.8094 15.0538 68.0805 14.3706 65.8968 14.3706C63.1167 14.3706 60.798 15.4799 59.4135 17.4269V15.105V14.8388H59.1473H56.6503H56.3841V15.105V36.017V36.2832H56.6503H59.2253ZM92.6691 6.75586V17.7177C92.0635 16.7325 91.3068 15.9591 90.4019 15.4047C89.2701 14.7114 87.9227 14.3706 86.3808 14.3706C83.6731 14.3706 81.532 15.3879 80.0766 17.3302C78.6296 19.2611 77.8825 22.0764 77.8825 25.639C77.8825 29.1427 78.6099 31.9182 80.0169 33.8244C81.4325 35.7423 83.5151 36.7514 86.1467 36.7514C87.81 36.7514 89.2484 36.35 90.4448 35.5507C91.405 34.9092 92.1981 34.019 92.8251 32.8963V36.017V36.2832H93.0914H95.4713H95.7375V36.017V6.75586V6.48963H95.4713H92.9353H92.6691V6.75586ZM48.0306 24.0073H37.0011C37.1477 21.719 37.7349 19.9733 38.6828 18.7928C39.6612 17.5744 41.0446 16.9319 42.8059 16.9319C44.4881 16.9319 45.7388 17.5341 46.5989 18.7236C47.4386 19.8849 47.9268 21.6344 48.0306 24.0073ZM86.7319 34.0731C84.9014 34.0731 83.4932 33.3501 82.5318 31.9728C81.5609 30.5818 81.0289 28.498 81.0289 25.7561V25.4049C81.0289 22.6846 81.5797 20.5912 82.5793 19.1852C83.5701 17.7916 85.0183 17.0489 86.888 17.0489C88.6814 17.0489 90.1134 17.7641 91.1044 19.0654C92.1018 20.3751 92.6691 22.3015 92.6691 24.7417V26.3023C92.6691 28.7406 92.0831 30.6865 91.0567 32.0162C90.0361 33.3383 88.5643 34.0731 86.7319 34.0731Z" fill="#2C3036" stroke="#20242C" stroke-width="0.532468"/>
<path d="M101.234 6.75488H121.132V12.217H101.234V6.75488Z" fill="#3278FF"/>
<path d="M103.969 10.3254L106.804 8.14484L106.716 8.10974C106.241 7.91956 105.834 7.58965 105.55 7.16357L103.969 10.3254Z" fill="#CADCFF"/>
<path d="M108.166 1.99543C107.672 2.61181 107.488 4.20803 108.612 4.52015C109.671 5.35126 110.564 4.95158 111.1 4.42438C111.244 4.28336 111.235 4.13014 111.288 3.94126C111.451 3.35746 111.051 2.75535 110.4 2.28806C109.904 1.93252 109.255 1.72898 108.76 1.82271C108.444 1.88263 108.358 1.75505 108.166 1.99543Z" fill="#CADCFF"/>
<path d="M105.66 4.21891C105.141 5.08301 106.005 6.45166 107.078 7.09577C107.975 7.63459 108.974 7.63339 109.581 7.11277C109.822 6.90541 110.191 6.76866 110.239 6.45399C110.358 5.67675 109.817 4.48302 108.957 3.96661C108.302 3.57369 107.015 3.48562 106.423 3.67377C106.045 3.79405 105.862 3.88192 105.66 4.21891Z" fill="#CADCFF"/>
<path fill-rule="evenodd" clip-rule="evenodd" d="M107.077 7.09856C106.005 6.45445 105.556 5.23181 106.075 4.36771C106.277 4.03182 106.509 3.71152 106.885 3.59033C106.158 3.64184 105.517 3.97631 105.162 4.566C104.513 5.64729 105.075 7.17726 106.417 7.98327C107.759 8.78929 109.374 8.56613 110.023 7.48483C110.278 7.05969 110.346 6.56518 110.253 6.07259C110.141 6.60476 109.75 7.08443 109.263 7.32478C108.658 7.62285 107.832 7.55152 107.077 7.09856Z" fill="#2C3036"/>
<ellipse rx="1.92624" ry="1.52153" transform="matrix(-0.812486 -0.58298 -0.625147 0.780507 109.781 3.04117)" fill="#2C3036"/>
<path fill-rule="evenodd" clip-rule="evenodd" d="M110.542 4.79016L109.872 6.12957C109.744 6.50877 109.449 6.83982 109.092 7.01602C108.59 7.26356 107.903 7.20432 107.277 6.82814C106.386 6.29321 106.013 5.2778 106.444 4.56017C106.565 4.35986 106.698 4.16623 106.879 4.0357L107.806 3.10938C107.874 3.64829 108.239 4.198 108.82 4.5473C109.409 4.901 110.049 4.97951 110.542 4.79016Z" fill="#3278FF"/>
<path d="M115.668 10.3254L118.503 8.14484L118.415 8.10974C117.94 7.91956 117.533 7.58965 117.249 7.16357L115.668 10.3254Z" fill="#CADCFF"/>
<path d="M119.865 1.99543C119.371 2.61181 119.187 4.20803 120.311 4.52015C121.37 5.35126 122.263 4.95158 122.8 4.42438C122.943 4.28336 122.935 4.13014 122.987 3.94126C123.15 3.35746 122.75 2.75535 122.099 2.28806C121.603 1.93252 120.954 1.72898 120.459 1.82271C120.143 1.88263 120.057 1.75505 119.865 1.99543Z" fill="#CADCFF"/>
<path d="M117.359 4.21891C116.84 5.08301 117.704 6.45166 118.777 7.09577C119.674 7.63459 120.673 7.63339 121.28 7.11277C121.521 6.90541 121.89 6.76866 121.938 6.45399C122.057 5.67675 121.516 4.48302 120.656 3.96661C120.002 3.57369 118.714 3.48562 118.122 3.67377C117.744 3.79405 117.561 3.88192 117.359 4.21891Z" fill="#CADCFF"/>
<path fill-rule="evenodd" clip-rule="evenodd" d="M118.774 7.09612C117.701 6.45201 117.252 5.22937 117.771 4.36527C117.973 4.02938 118.205 3.70908 118.582 3.58789C117.854 3.6394 117.213 3.97387 116.859 4.56356C116.209 5.64485 116.771 7.17482 118.113 7.98083C119.455 8.78684 121.07 8.56368 121.719 7.48239C121.974 7.05725 122.043 6.56274 121.95 6.07015C121.837 6.60232 121.446 7.08199 120.959 7.32234C120.354 7.62041 119.528 7.54908 118.774 7.09612Z" fill="#2C3036"/>
<ellipse rx="1.92624" ry="1.52153" transform="matrix(-0.812486 -0.58298 -0.625147 0.780507 121.48 3.04117)" fill="#2C3036"/>
<path fill-rule="evenodd" clip-rule="evenodd" d="M122.238 4.7882L121.557 6.15158C121.424 6.52093 121.134 6.84198 120.784 7.01452C120.282 7.26207 119.596 7.20283 118.969 6.82665C118.079 6.29171 117.706 5.27631 118.137 4.55868C118.26 4.35345 118.397 4.15524 118.585 4.02472L119.498 3.1123C119.567 3.65023 119.931 4.19851 120.512 4.54714C121.103 4.90196 121.745 4.97984 122.238 4.7882Z" fill="#3278FF"/>
<rect x="139" y="1" width="110" height="36" rx="18" fill="#3278FF"/>
<path d="M164.748 24.171V27.8H162.734V24.171C161.265 23.981 160.1 23.4363 159.238 22.537C158.377 21.6377 157.946 20.542 157.946 19.25C157.946 17.958 158.377 16.8623 159.238 15.963C160.1 15.0637 161.265 14.519 162.734 14.329V10.7H164.748V14.329C166.218 14.519 167.383 15.0637 168.244 15.963C169.106 16.8623 169.536 17.958 169.536 19.25C169.536 20.542 169.106 21.6377 168.244 22.537C167.383 23.4363 166.218 23.981 164.748 24.171ZM164.748 16.286V22.214C165.622 22.0493 166.3 21.7073 166.781 21.188C167.263 20.656 167.503 20.01 167.503 19.25C167.503 18.49 167.263 17.8503 166.781 17.331C166.3 16.799 165.622 16.4507 164.748 16.286ZM162.734 22.214V16.286C161.873 16.4507 161.195 16.799 160.701 17.331C160.22 17.8503 159.979 18.49 159.979 19.25C159.979 20.01 160.22 20.656 160.701 21.188C161.195 21.7073 161.873 22.0493 162.734 22.214ZM174.356 20.523L179.22 14.5H180.797V24H178.783V17.958L173.919 24H172.342V14.5H174.356V20.523ZM190.531 18.281V14.5H192.583V24H190.531V20.219H186.18V24H184.128V14.5H186.18V18.281H190.531ZM203.438 15.849V14.5H205.49V24H203.438V22.632C202.666 23.7087 201.557 24.247 200.113 24.247C198.809 24.247 197.694 23.7657 196.769 22.803C195.845 21.8403 195.382 20.656 195.382 19.25C195.382 17.844 195.845 16.6597 196.769 15.697C197.694 14.7343 198.809 14.253 200.113 14.253C201.557 14.253 202.666 14.785 203.438 15.849ZM198.289 21.435C198.859 22.005 199.575 22.29 200.436 22.29C201.298 22.29 202.013 22.005 202.583 21.435C203.153 20.8523 203.438 20.124 203.438 19.25C203.438 18.376 203.153 17.654 202.583 17.084C202.013 16.5013 201.298 16.21 200.436 16.21C199.575 16.21 198.859 16.5013 198.289 17.084C197.719 17.654 197.434 18.376 197.434 19.25C197.434 20.1113 197.719 20.8397 198.289 21.435ZM215.235 18.281V14.5H217.287V24H215.235V20.219H210.884V24H208.832V14.5H210.884V18.281H215.235ZM225.102 24.247C223.671 24.247 222.474 23.7657 221.511 22.803C220.561 21.8277 220.086 20.6433 220.086 19.25C220.086 17.8313 220.561 16.647 221.511 15.697C222.474 14.7343 223.671 14.253 225.102 14.253C226.027 14.253 226.869 14.4747 227.629 14.918C228.389 15.3613 228.959 15.9567 229.339 16.704L227.572 17.73C227.357 17.274 227.027 16.9193 226.584 16.666C226.153 16.4 225.653 16.267 225.083 16.267C224.247 16.267 223.544 16.552 222.974 17.122C222.417 17.7047 222.138 18.414 222.138 19.25C222.138 20.086 222.417 20.7953 222.974 21.378C223.544 21.948 224.247 22.233 225.083 22.233C225.64 22.233 226.141 22.1063 226.584 21.853C227.04 21.587 227.382 21.226 227.61 20.77L229.377 21.777C228.972 22.537 228.383 23.1387 227.61 23.582C226.85 24.0253 226.014 24.247 225.102 24.247Z" fill="white"/>
</svg>
