<svg width="866" height="2" viewBox="0 0 866 2" fill="none" xmlns="http://www.w3.org/2000/svg">
<rect x="162" width="2" height="4" rx="1" transform="rotate(90 162 0)" fill="#D8DCE7"/>
<rect x="215" width="2" height="4" rx="1" transform="rotate(90 215 0)" fill="#D8DCE7"/>
<rect x="144" width="2" height="4" rx="1" transform="rotate(90 144 0)" fill="#D8DCE7"/>
<rect x="197" width="2" height="4" rx="1" transform="rotate(90 197 0)" fill="#D8DCE7"/>
<rect x="126" width="2" height="4" rx="1" transform="rotate(90 126 0)" fill="#D8DCE7"/>
<rect x="179" width="2" height="4" rx="1" transform="rotate(90 179 0)" fill="#D8DCE7"/>
<rect x="109" width="2" height="4" rx="1" transform="rotate(90 109 0)" fill="#D8DCE7"/>
<rect x="91" width="2" height="4" rx="1" transform="rotate(90 91 0)" fill="#D8DCE7"/>
<rect x="74" width="2" height="4" rx="1" transform="rotate(90 74 0)" fill="#D8DCE7"/>
<rect x="57" width="2" height="4" rx="1" transform="rotate(90 57 0)" fill="#D8DCE7"/>
<rect x="39" width="2" height="4" rx="1" transform="rotate(90 39 0)" fill="#D8DCE7"/>
<rect x="21" width="2" height="4" rx="1" transform="rotate(90 21 0)" fill="#D8DCE7"/>
<rect x="4" width="2" height="4" rx="1" transform="rotate(90 4 0)" fill="#D8DCE7"/>
<rect x="391" width="2" height="4" rx="1" transform="rotate(90 391 0)" fill="#D8DCE7"/>
<rect x="444" width="2" height="4" rx="1" transform="rotate(90 444 0)" fill="#D8DCE7"/>
<rect x="373" width="2" height="4" rx="1" transform="rotate(90 373 0)" fill="#D8DCE7"/>
<rect x="426" width="2" height="4" rx="1" transform="rotate(90 426 0)" fill="#D8DCE7"/>
<rect x="355" width="2" height="4" rx="1" transform="rotate(90 355 0)" fill="#D8DCE7"/>
<rect x="408" width="2" height="4" rx="1" transform="rotate(90 408 0)" fill="#D8DCE7"/>
<rect x="338" width="2" height="4" rx="1" transform="rotate(90 338 0)" fill="#D8DCE7"/>
<rect x="320" width="2" height="4" rx="1" transform="rotate(90 320 0)" fill="#D8DCE7"/>
<rect x="303" width="2" height="4" rx="1" transform="rotate(90 303 0)" fill="#D8DCE7"/>
<rect x="286" width="2" height="4" rx="1" transform="rotate(90 286 0)" fill="#D8DCE7"/>
<rect x="268" width="2" height="4" rx="1" transform="rotate(90 268 0)" fill="#D8DCE7"/>
<rect x="250" width="2" height="4" rx="1" transform="rotate(90 250 0)" fill="#D8DCE7"/>
<rect x="233" width="2" height="4" rx="1" transform="rotate(90 233 0)" fill="#D8DCE7"/>
<rect x="620" width="2" height="4" rx="1" transform="rotate(90 620 0)" fill="#D8DCE7"/>
<rect x="673" width="2" height="4" rx="1" transform="rotate(90 673 0)" fill="#D8DCE7"/>
<rect x="602" width="2" height="4" rx="1" transform="rotate(90 602 0)" fill="#D8DCE7"/>
<rect x="655" width="2" height="4" rx="1" transform="rotate(90 655 0)" fill="#D8DCE7"/>
<rect x="584" width="2" height="4" rx="1" transform="rotate(90 584 0)" fill="#D8DCE7"/>
<rect x="637" width="2" height="4" rx="1" transform="rotate(90 637 0)" fill="#D8DCE7"/>
<rect x="567" width="2" height="4" rx="1" transform="rotate(90 567 0)" fill="#D8DCE7"/>
<rect x="549" width="2" height="4" rx="1" transform="rotate(90 549 0)" fill="#D8DCE7"/>
<rect x="532" width="2" height="4" rx="1" transform="rotate(90 532 0)" fill="#D8DCE7"/>
<rect x="515" width="2" height="4" rx="1" transform="rotate(90 515 0)" fill="#D8DCE7"/>
<rect x="497" width="2" height="4" rx="1" transform="rotate(90 497 0)" fill="#D8DCE7"/>
<rect x="479" width="2" height="4" rx="1" transform="rotate(90 479 0)" fill="#D8DCE7"/>
<rect x="462" width="2" height="4" rx="1" transform="rotate(90 462 0)" fill="#D8DCE7"/>
<rect x="849" width="2" height="4" rx="1" transform="rotate(90 849 0)" fill="#D8DCE7"/>
<rect x="831" width="2" height="4" rx="1" transform="rotate(90 831 0)" fill="#D8DCE7"/>
<rect x="813" width="2" height="4" rx="1" transform="rotate(90 813 0)" fill="#D8DCE7"/>
<rect x="866" width="2" height="4" rx="1" transform="rotate(90 866 0)" fill="#D8DCE7"/>
<rect x="796" width="2" height="4" rx="1" transform="rotate(90 796 0)" fill="#D8DCE7"/>
<rect x="778" width="2" height="4" rx="1" transform="rotate(90 778 0)" fill="#D8DCE7"/>
<rect x="761" width="2" height="4" rx="1" transform="rotate(90 761 0)" fill="#D8DCE7"/>
<rect x="744" width="2" height="4" rx="1" transform="rotate(90 744 0)" fill="#D8DCE7"/>
<rect x="726" width="2" height="4" rx="1" transform="rotate(90 726 0)" fill="#D8DCE7"/>
<rect x="708" width="2" height="4" rx="1" transform="rotate(90 708 0)" fill="#D8DCE7"/>
<rect x="691" width="2" height="4" rx="1" transform="rotate(90 691 0)" fill="#D8DCE7"/>
</svg>
