<svg width="77" height="32" viewBox="0 0 77 32" fill="none" xmlns="http://www.w3.org/2000/svg">
<path fill-rule="evenodd" clip-rule="evenodd" d="M24.8562 1.63096C-0.131696 5.55889 -7.98251 17.5857 9.17543 25.652C31.7424 36.2607 74.6375 30.3483 76.163 16.4185C77.3144 5.90314 49.2102 -2.19686 24.8562 1.63096ZM26.4942 8.17508C25.1105 11.2964 23.2267 15.5078 22.3081 17.534C21.389 19.5601 20.6375 21.3443 20.6375 21.499C20.6375 22.2775 34.1487 21.0839 37.5474 20.0045C45.4696 17.489 51.238 11.45 50.9095 6.01508C50.6975 2.49833 50.8285 2.45952 57.128 4.20552C77.3679 9.81421 75.8525 23.5066 54.4859 28.0825L52.615 28.483L53.5015 26.7696C54.7779 24.3008 54.6069 23.0386 52.7 20.8673C50.7228 18.6156 50.6379 18.25 52.0914 18.25C53.7682 18.25 54.95 17.6436 54.95 16.7836C54.95 15.6344 49.1354 15.73 47.3365 16.9085C46.2751 17.6037 45.95 18.3063 45.95 19.9043C45.95 22.655 44.2771 24.1945 40.3115 25.0923C36.8757 25.8696 22.9263 26.084 20.4502 25.3971C19.1126 25.0259 18.8077 25.1418 18.5523 26.1183C18.2086 27.4328 17.8244 27.3715 12.9785 25.2284C-0.673948 19.1911 2.62174 8.77696 19.6256 4.22521C29.6195 1.54996 29.4699 1.46389 26.4942 8.17508ZM35.7097 4.05421C37.7341 6.77052 31.064 16.3589 25.5087 18.7186C24.6301 19.0915 23.9973 19.1793 24.1025 18.9132C24.2077 18.6471 25.9205 14.8227 27.9084 10.4144L31.523 2.39877L33.2521 2.73852C34.2033 2.9247 35.3092 3.51702 35.7097 4.05421Z" fill="#8990AB"/>
</svg>
