<svg width="22" height="21" viewBox="0 0 22 21" fill="none" xmlns="http://www.w3.org/2000/svg">
<path d="M6.89844 17.5135V6.54671C6.89844 6.11494 7.02797 5.69397 7.26544 5.33777L10.2122 0.955367C10.6764 0.25375 11.8313 -0.242778 12.8136 0.124221C13.8714 0.480426 14.573 1.66778 14.3464 2.7256L13.7851 6.25527C13.7419 6.57909 13.8282 6.87053 14.0117 7.09721C14.1952 7.30229 14.4651 7.43182 14.7565 7.43182H19.1929C20.0456 7.43182 20.7796 7.77723 21.2114 8.3817C21.6216 8.96458 21.6971 9.72017 21.4273 10.4866L18.7719 18.5713C18.4373 19.9098 16.9801 21 15.5337 21H11.324C10.6008 21 9.58617 20.7517 9.12202 20.2876L7.74038 19.219C7.21147 18.8196 6.89844 18.1827 6.89844 17.5135Z" fill="#5071E6"/>
<path d="M3.4649 4.44238H2.35311C0.680028 4.44238 0 5.09003 0 6.68755V17.5464C0 19.1439 0.680028 19.7916 2.35311 19.7916H3.4649C5.13799 19.7916 5.81802 19.1439 5.81802 17.5464V6.68755C5.81802 5.09003 5.13799 4.44238 3.4649 4.44238Z" fill="#5071E6"/>
</svg>
