<svg width="233" height="69" viewBox="0 0 233 69" fill="none" xmlns="http://www.w3.org/2000/svg">
<path d="M208.713 67.8181C221.535 67.8181 227.397 62.5426 227.397 51.0389V27.0791H214.281V51.0389C214.281 55.5818 212.523 57.6334 208.713 57.6334C204.976 57.6334 203.217 55.5818 203.217 51.0389V27.0791H190.102V51.0389C190.102 62.5426 195.963 67.8181 208.713 67.8181Z" fill="#3278FF"/>
<path d="M18.0316 37.3209L18.0308 37.3205C15.2292 36.0672 12.6415 34.9032 10.7438 33.3425C8.87602 31.8064 7.70228 29.9062 7.70228 27.1526V26.9328C7.70228 24.4024 8.70199 22.3479 10.4416 20.9168C12.1907 19.4779 14.7253 18.6402 17.8267 18.6402C21.0311 18.6402 24.6961 19.5671 28.6838 21.3797L29.3451 21.6803L29.3897 20.9552L29.6828 16.1925L29.7049 15.8345L29.3727 15.6989C25.7208 14.2083 21.3335 13.3904 17.6069 13.3904C12.859 13.3904 8.86745 14.7744 6.05582 17.262C3.2383 19.7547 1.64654 23.3207 1.64654 27.5922C1.64654 31.998 3.36647 35.0056 5.89882 37.2619C8.3997 39.4901 11.694 40.984 14.826 42.4043L14.835 42.4084C14.835 42.4084 14.835 42.4084 14.835 42.4084C17.7453 43.7346 20.5149 45.0075 22.5671 46.7576C24.5906 48.4833 25.8994 50.6595 25.8994 53.8234V54.0432C25.8994 56.8347 24.8229 59.1094 22.9363 60.6945C21.0412 62.2867 18.2886 63.2151 14.8958 63.2151C11.1017 63.2151 6.78257 62.1397 2.66636 60.0455L2.00851 59.7108L1.94168 60.4459L1.50205 65.2818L1.46877 65.6479L1.80831 65.7889C5.74851 67.4244 10.6494 68.4649 14.9691 68.4649C20.0791 68.4649 24.3291 67.0282 27.3085 64.382C30.2945 61.7299 31.9552 57.9054 31.9552 53.2373C31.9552 48.396 30.1104 45.1314 27.4203 42.717C24.7938 40.3597 21.3649 38.8188 18.1569 37.3772L18.0316 37.3209ZM57.873 67.4931L58.2356 67.3895V67.0123V62.9091V62.2154L57.5775 62.4348C56.3191 62.8542 54.6888 63.0686 53.4126 63.0686C51.7589 63.0686 50.6015 62.5737 49.8425 61.6486C49.0677 60.7043 48.6371 59.2274 48.6371 57.1207V32.1954H57.7356H58.2356V31.6954V27.6655V27.1655H57.7356H48.6371V17.3342V16.7774L48.0835 16.8371L43.3209 17.35L42.8744 17.398V17.8471V27.1655H36.9265H36.4265V27.6655V31.6954V32.1954H36.9265H42.8744V57.8534C42.8744 61.282 43.5993 63.9162 45.1703 65.6947C46.7526 67.4859 49.1109 68.3183 52.167 68.3183C53.8977 68.3183 55.7758 68.0923 57.873 67.4931ZM94.4111 65.7138L94.745 65.5716L94.7133 65.2101L94.3469 61.0336L94.2842 60.3191L93.6355 60.6251C89.8073 62.4308 85.9233 63.3616 82.4184 63.3616C78.3084 63.3616 75.1629 62.1323 73.0098 59.7187C70.9199 57.376 69.7026 53.8485 69.5245 49.0479H95.8271H96.3271V48.5479V47.3023C96.3271 40.5099 95.0188 35.2575 92.3921 31.6919C89.7462 28.1004 85.8115 26.2862 80.7332 26.2862C75.3604 26.2862 71.0509 28.2653 68.0968 31.9698C65.1548 35.6591 63.6005 41.0041 63.6005 47.6686C63.6005 54.3323 65.1547 59.5076 68.2692 63.021C71.3931 66.5448 76.0163 68.3183 81.9788 68.3183C86.153 68.3183 90.396 67.424 94.4111 65.7138ZM111.35 67.439H111.85V66.939V42.5396C111.85 39.1651 112.914 36.4014 114.735 34.4853C116.553 32.5714 119.165 31.4627 122.341 31.4627C125.202 31.4627 127.32 32.3417 128.732 33.9652C130.154 35.6005 130.926 38.0663 130.926 41.3673V66.939V67.439H131.426H136.262H136.762V66.939V40.8544C136.762 36.238 135.646 32.586 133.441 30.0827C131.227 27.5693 127.98 26.2862 123.879 26.2862C118.658 26.2862 114.303 28.3696 111.703 32.0261V27.6655V27.1655H111.203H106.514H106.014V27.6655V66.939V67.439H106.514H111.35ZM174.159 11.9854V32.5722C173.021 30.722 171.6 29.2694 169.901 28.2283C167.775 26.9262 165.245 26.2862 162.349 26.2862C157.264 26.2862 153.243 28.1967 150.51 31.8444C147.792 35.4708 146.389 40.7581 146.389 47.4488C146.389 54.0289 147.755 59.2414 150.397 62.8214C153.056 66.4232 156.967 68.3183 161.91 68.3183C165.033 68.3183 167.735 67.5645 169.982 66.0634C171.785 64.8587 173.274 63.1868 174.452 61.0784V66.939V67.439H174.952H179.421H179.921V66.939V11.9854V11.4854H179.421H174.659H174.159V11.9854ZM90.3257 44.3843H69.6117C69.887 40.0869 70.9898 36.8083 72.7701 34.5913C74.6076 32.3031 77.2057 31.0963 80.5134 31.0963C83.6728 31.0963 86.0215 32.2273 87.6369 34.4613C89.2139 36.6423 90.1307 39.928 90.3257 44.3843ZM163.009 63.2884C159.571 63.2884 156.926 61.9306 155.121 59.344C153.297 56.7317 152.298 52.818 152.298 47.6686V47.0092C152.298 41.9002 153.332 37.9687 155.21 35.3281C157.07 32.7109 159.79 31.3162 163.302 31.3162C166.67 31.3162 169.359 32.6593 171.22 35.1032C173.093 37.5629 174.159 41.1808 174.159 45.7636V48.6944C174.159 53.2738 173.058 56.9281 171.131 59.4254C169.214 61.9085 166.45 63.2884 163.009 63.2884Z" fill="#2C3036" stroke="#2C3036"/>
<path d="M190.25 11.9834H227.619V22.2414H190.25V11.9834Z" fill="#3278FF"/>
<path d="M195.383 18.6891L200.707 14.5938L200.542 14.5279C199.649 14.1708 198.886 13.5512 198.352 12.751L195.383 18.6891Z" fill="#CADCFF"/>
<path d="M203.265 3.04496C202.338 4.20254 201.993 7.20032 204.103 7.78649C206.092 9.34736 207.77 8.59675 208.777 7.60664C209.046 7.34179 209.031 7.05404 209.13 6.69931C209.436 5.60291 208.684 4.47213 207.461 3.59453C206.53 2.9268 205.311 2.54455 204.382 2.72057C203.788 2.83311 203.627 2.59352 203.265 3.04496Z" fill="#CADCFF"/>
<path d="M198.558 7.22162C197.584 8.84443 199.207 11.4148 201.221 12.6245C202.906 13.6364 204.783 13.6342 205.922 12.6564C206.375 12.267 207.067 12.0102 207.158 11.4192C207.382 9.95951 206.365 7.71762 204.75 6.74777C203.521 6.00986 201.103 5.84447 199.991 6.19781C199.281 6.42371 198.938 6.58874 198.558 7.22162Z" fill="#CADCFF"/>
<path fill-rule="evenodd" clip-rule="evenodd" d="M201.222 12.6299C199.208 11.4202 198.365 9.12402 199.339 7.50121C199.719 6.86926 200.156 6.26671 200.865 6.04004C199.496 6.13511 198.289 6.76352 197.622 7.87288C196.403 9.9036 197.458 12.7769 199.978 14.2907C202.499 15.8044 205.531 15.3853 206.751 13.3546C207.229 12.5586 207.357 11.6332 207.185 10.7109C206.972 11.7072 206.239 12.6045 205.326 13.0547C204.191 13.6145 202.639 13.4805 201.222 12.6299Z" fill="#2C3036"/>
<ellipse rx="3.61758" ry="2.85751" transform="matrix(-0.812486 -0.58298 -0.625147 0.780507 206.298 5.00902)" fill="#2C3036"/>
<path fill-rule="evenodd" clip-rule="evenodd" d="M207.723 8.29332L206.465 10.8091C206.223 11.5207 205.67 12.1418 204.999 12.4725C204.056 12.9374 202.767 12.8261 201.591 12.1196C199.918 11.115 199.218 9.20804 200.027 7.8603C200.253 7.48342 200.505 7.11913 200.846 6.87398L202.583 5.1377C202.711 6.14965 203.396 7.18181 204.488 7.8377C205.594 8.50228 206.797 8.64955 207.723 8.29332Z" fill="#3278FF"/>
<path d="M217.36 18.6891L222.684 14.5938L222.519 14.5279C221.626 14.1708 220.862 13.5512 220.329 12.751L217.36 18.6891Z" fill="#CADCFF"/>
<path d="M225.242 3.04496C224.315 4.20254 223.969 7.20032 226.08 7.78649C228.069 9.34736 229.746 8.59675 230.753 7.60664C231.023 7.34179 231.007 7.05404 231.106 6.69931C231.412 5.60291 230.661 4.47213 229.438 3.59453C228.507 2.9268 227.287 2.54455 226.358 2.72057C225.764 2.83311 225.603 2.59352 225.242 3.04496Z" fill="#CADCFF"/>
<path d="M220.535 7.22162C219.56 8.84443 221.183 11.4148 223.197 12.6245C224.882 13.6364 226.759 13.6342 227.898 12.6564C228.352 12.267 229.044 12.0102 229.135 11.4192C229.359 9.95951 228.342 7.71762 226.727 6.74777C225.498 6.00986 223.079 5.84447 221.968 6.19781C221.258 6.42371 220.915 6.58874 220.535 7.22162Z" fill="#CADCFF"/>
<path fill-rule="evenodd" clip-rule="evenodd" d="M223.195 12.625C221.18 11.4153 220.337 9.11914 221.312 7.49633C221.691 6.86438 222.129 6.26183 222.838 6.03516C221.468 6.13023 220.261 6.75863 219.595 7.868C218.376 9.89872 219.43 12.7721 221.951 14.2858C224.472 15.7995 227.504 15.3804 228.723 13.3497C229.201 12.5537 229.33 11.6283 229.158 10.706C228.944 11.7023 228.212 12.5996 227.298 13.0498C226.163 13.6096 224.611 13.4757 223.195 12.625Z" fill="#2C3036"/>
<ellipse rx="3.61758" ry="2.85751" transform="matrix(-0.812486 -0.58298 -0.625147 0.780507 228.274 5.00902)" fill="#2C3036"/>
<path fill-rule="evenodd" clip-rule="evenodd" d="M229.703 8.29025L228.43 10.836C228.184 11.5364 227.636 12.1461 226.974 12.4726C226.031 12.9375 224.742 12.8263 223.565 12.1198C221.893 11.1151 221.193 9.20816 222.002 7.86041C222.232 7.4778 222.487 7.10816 222.837 6.86299L224.553 5.14648C224.684 6.15598 225.368 7.1846 226.457 7.83884C227.568 8.50602 228.776 8.65183 229.703 8.29025Z" fill="#3278FF"/>
</svg>
