<?xml version="1.0" encoding="UTF-8"?>
<!DOCTYPE svg PUBLIC "-//W3C//DTD SVG 1.1//EN" "http://www.w3.org/Graphics/SVG/1.1/DTD/svg11.dtd">
<!-- Creator: CorelDRAW 2017 -->
<svg xmlns="http://www.w3.org/2000/svg" xml:space="preserve" width="210mm" height="297mm" version="1.1" style="shape-rendering:geometricPrecision; text-rendering:geometricPrecision; image-rendering:optimizeQuality; fill-rule:evenodd; clip-rule:evenodd"
viewBox="0 0 21000 29700"
 xmlns:xlink="http://www.w3.org/1999/xlink">
 <defs>
  <style type="text/css">
   <![CDATA[
    .str0 {stroke:#2B2A29;stroke-width:20;stroke-miterlimit:22.9256}
    .fil0 {fill:#1E2834}
    .fil1 {fill:#859DA9}
    .fil4 {fill:#CBD8DB}
    .fil3 {fill:#FEFEFE;fill-opacity:0.501961}
    .fil2 {fill:url(#id0)}
    .fil5 {fill:url(#id1)}
   ]]>
  </style>
  <linearGradient id="id0" gradientUnits="userSpaceOnUse" x1="12120.32" y1="17245.89" x2="3402.36" y2="18164.98">
   <stop offset="0" style="stop-opacity:1; stop-color:#829AA6"/>
   <stop offset="1" style="stop-opacity:1; stop-color:#D7E2E4"/>
  </linearGradient>
  <linearGradient id="id1" gradientUnits="userSpaceOnUse" xlink:href="#id0" x1="11616.9" y1="7280.81" x2="11623.32" y2="16047.08">
  </linearGradient>
 </defs>
 <g id="Слой_x0020_1">
  <metadata id="CorelCorpID_0Corel-Layer"/>
  <rect class="fil0 str0" width="21000" height="29700"/>
  <g id="_2273295157296">
   <path class="fil1" d="M16195.42 7991.51c613.21,0 1110.34,497.08 1110.34,1110.29 0,613.26 -497.13,1110.34 -1110.34,1110.34 -613.21,0 -1110.38,-497.08 -1110.38,-1110.34 0,-613.21 497.17,-1110.29 1110.38,-1110.29z"/>
   <path class="fil2" d="M5743.66 22345.27c1532.4,-481.32 851.82,-1761.62 1453.69,-2830.99 212.47,-377.5 639.45,-852.92 1126.13,-1077.41 703.37,-324.33 1317.16,-123.39 1992.84,-373.84 2477.39,-918.42 2015.58,-4599.32 -617.45,-4857.2 -1365.69,-133.73 -2367.85,805.36 -2650.62,1750.32 -432.79,1446.24 594.45,1997.57 -611.65,3486.13 -915.69,1130.06 -2151.28,535.59 -2639.93,1853.19 -464.76,1252.99 733.92,2430.89 1946.99,2049.8z"/>
   <path class="fil3" d="M10268.21 14029.31c876.49,548.53 1256.15,1590.75 1004.05,2540.38l-762.16 -851.37c14.87,-1347.93 -895.57,-2094.32 -2315.48,-1875.43 657.86,-261.98 1427.32,-217.99 2073.59,186.42z"/>
   <path class="fil4" d="M10560.01 19753.49c613.21,0 1110.34,497.09 1110.34,1110.3 0,613.26 -497.13,1110.34 -1110.34,1110.34 -613.21,0 -1110.38,-497.08 -1110.38,-1110.34 0,-613.21 497.17,-1110.3 1110.38,-1110.3z"/>
   <path class="fil5" d="M16024.67 14153.74c-319.16,-1574.18 -1663.36,-1030.61 -2664.26,-1740.54 -353.33,-250.62 -781.71,-724.78 -954.3,-1232.18 -249.35,-733.32 14.4,-1322.86 -164.33,-2020.94 -655.49,-2559.55 -4364.47,-2483.48 -4895.09,108.39 -275.19,1344.34 554.45,2438.83 1464.84,2818.45 1393.31,581.01 2048.61,-383.25 3403.5,971.28 1028.58,1028.38 308.7,2195.36 1568.26,2818.53 1197.79,592.69 2494.1,-476.84 2241.38,-1722.99z"/>
   <path class="fil3" d="M10650.99 8102.99c876.49,548.53 1256.15,1590.75 1004.05,2540.38l-762.16 -851.37c14.87,-1347.92 -895.57,-2094.32 -2315.48,-1875.43 657.86,-261.98 1427.32,-217.99 2073.59,186.42z"/>
  </g>
 </g>
</svg>
