<svg width="70" height="96" viewBox="0 0 70 96" fill="none" xmlns="http://www.w3.org/2000/svg">
<path d="M70 35.9496C70 53.6273 56.7063 68.2786 40.3261 70.9237C39.5652 71.3494 37.2826 73.6089 35 79.6345C31.1956 71.3494 30.4348 71.3494 29.674 70.9237C13.2937 68.2786 0 53.6273 0 35.9496C0 16.3989 16.0902 0.549805 35 0.549805C53.9098 0.549805 70 16.3989 70 35.9496Z" fill="#2A83E8"/>
<path d="M70 35.9496C70 53.6273 56.7063 68.2786 40.3261 70.9237C39.5652 71.3494 37.2826 73.6089 35 79.6345C31.1956 71.3494 30.4348 71.3494 29.674 70.9237C13.2937 68.2786 0 53.6273 0 35.9496C0 16.3989 16.0902 0.549805 35 0.549805C53.9098 0.549805 70 16.3989 70 35.9496Z" fill="url(#paint0_linear_621_15848)"/>
<path d="M35.0002 44.2342C40.463 44.2342 44.8915 39.8504 44.8915 34.4428C44.8915 29.0351 40.463 24.6514 35.0002 24.6514C29.5374 24.6514 25.1089 29.0351 25.1089 34.4428C25.1089 39.8504 29.5374 44.2342 35.0002 44.2342Z" fill="white"/>
<path d="M35.2535 95.4504C38.6152 95.4504 41.3404 92.7527 41.3404 89.4249C41.3404 86.0971 38.6152 83.3994 35.2535 83.3994C31.8917 83.3994 29.1665 86.0971 29.1665 89.4249C29.1665 92.7527 31.8917 95.4504 35.2535 95.4504Z" fill="white"/>
<path d="M35.127 92.4376C36.8078 92.4376 38.1704 91.0888 38.1704 89.4249C38.1704 87.761 36.8078 86.4121 35.127 86.4121C33.4461 86.4121 32.0835 87.761 32.0835 89.4249C32.0835 91.0888 33.4461 92.4376 35.127 92.4376Z" fill="#375DE2"/>
<defs>
<linearGradient id="paint0_linear_621_15848" x1="50" y1="101.5" x2="86.4356" y2="29.4247" gradientUnits="userSpaceOnUse">
<stop stop-color="#4067F0"/>
<stop offset="1" stop-color="#375DE2"/>
</linearGradient>
</defs>
</svg>
