<svg width="20" height="20" viewBox="0 0 20 20" fill="none" xmlns="http://www.w3.org/2000/svg">
<g clip-path="url(#clip0_406_15482)">
<path d="M7.50781 6.05371C7.01781 6.05371 6.63281 6.44746 6.63281 6.92871C6.63281 7.40996 7.02656 7.80371 7.50781 7.80371C7.98906 7.80371 8.38281 7.40996 8.38281 6.92871C8.38281 6.44746 7.98906 6.05371 7.50781 6.05371Z" fill="#4067F0"/>
<path d="M18.2775 3.91C17.5425 2.20375 15.9238 1.25 13.6663 1.25H6.33375C3.525 1.25 1.25 3.525 1.25 6.33375V13.6662C1.25 15.9237 2.20375 17.5425 3.91 18.2775C4.07625 18.3475 4.26875 18.3037 4.39125 18.1812L18.1813 4.39125C18.3125 4.26 18.3562 4.0675 18.2775 3.91ZM8.71375 10.21C8.3725 10.5425 7.92625 10.7 7.48 10.7C7.03375 10.7 6.5875 10.5337 6.24625 10.21C5.35375 9.37 4.37375 8.03125 4.75 6.43875C5.0825 4.995 6.36 4.3475 7.48 4.3475C8.6 4.3475 9.8775 4.995 10.21 6.4475C10.5775 8.03125 9.5975 9.37 8.71375 10.21Z" fill="#4067F0"/>
<path d="M16.5353 17.4638C16.7278 17.6563 16.7016 17.9713 16.4653 18.1026C15.6953 18.5313 14.7591 18.7501 13.6653 18.7501H6.3328C6.07905 18.7501 5.97405 18.4526 6.14905 18.2776L11.4341 12.9926C11.6091 12.8176 11.8803 12.8176 12.0553 12.9926L16.5353 17.4638Z" fill="#4067F0"/>
<path d="M18.75 6.33378V13.6663C18.75 14.76 18.5313 15.705 18.1025 16.4663C17.9713 16.7025 17.6563 16.72 17.4638 16.5363L12.9838 12.0563C12.8088 11.8813 12.8088 11.61 12.9838 11.435L18.2688 6.15003C18.4525 5.97503 18.75 6.08003 18.75 6.33378Z" fill="#4067F0"/>
</g>
<defs>
<clipPath id="clip0_406_15482">
<rect width="20" height="20" fill="white"/>
</clipPath>
</defs>
</svg>
