<svg width="15" height="15" viewBox="0 0 15 15" fill="none" xmlns="http://www.w3.org/2000/svg">
<path d="M11.8819 5.92C13.5166 5.92 14.8419 4.59476 14.8419 2.96C14.8419 1.32524 13.5166 0 11.8819 0C10.2471 0 8.92188 1.32524 8.92188 2.96C8.92188 4.59476 10.2471 5.92 11.8819 5.92Z" fill="#4067F0"/>
<path d="M2.96 5.92C4.59476 5.92 5.92 4.59476 5.92 2.96C5.92 1.32524 4.59476 0 2.96 0C1.32524 0 0 1.32524 0 2.96C0 4.59476 1.32524 5.92 2.96 5.92Z" fill="#4067F0"/>
<path d="M11.8819 14.8399C13.5166 14.8399 14.8419 13.5147 14.8419 11.8799C14.8419 10.2452 13.5166 8.91992 11.8819 8.91992C10.2471 8.91992 8.92188 10.2452 8.92188 11.8799C8.92188 13.5147 10.2471 14.8399 11.8819 14.8399Z" fill="#4067F0"/>
<path d="M2.96 14.8399C4.59476 14.8399 5.92 13.5147 5.92 11.8799C5.92 10.2452 4.59476 8.91992 2.96 8.91992C1.32524 8.91992 0 10.2452 0 11.8799C0 13.5147 1.32524 14.8399 2.96 14.8399Z" fill="#4067F0"/>
</svg>
