<svg width="24" height="24" viewBox="0 0 24 24" fill="none" xmlns="http://www.w3.org/2000/svg">
<g clip-path="url(#clip0_220_3)">
<g filter="url(#filter0_d_220_3)">
<path d="M22 8.52V3.98C22 2.57 21.36 2 19.77 2H15.73C14.14 2 13.5 2.57 13.5 3.98V8.51C13.5 9.93 14.14 10.49 15.73 10.49H19.77C21.36 10.5 22 9.93 22 8.52Z" fill="#4067F0"/>
</g>
<g filter="url(#filter1_d_220_3)">
<path d="M22 19.77V15.73C22 14.14 21.36 13.5 19.77 13.5H15.73C14.14 13.5 13.5 14.14 13.5 15.73V19.77C13.5 21.36 14.14 22 15.73 22H19.77C21.36 22 22 21.36 22 19.77Z" fill="#4067F0"/>
</g>
<g filter="url(#filter2_d_220_3)">
<path d="M10.5 8.52V3.98C10.5 2.57 9.86 2 8.27 2H4.23C2.64 2 2 2.57 2 3.98V8.51C2 9.93 2.64 10.49 4.23 10.49H8.27C9.86 10.5 10.5 9.93 10.5 8.52Z" fill="#4067F0"/>
</g>
<g filter="url(#filter3_d_220_3)">
<path d="M10.5 19.77V15.73C10.5 14.14 9.86 13.5 8.27 13.5H4.23C2.64 13.5 2 14.14 2 15.73V19.77C2 21.36 2.64 22 4.23 22H8.27C9.86 22 10.5 21.36 10.5 19.77Z" fill="#4067F0"/>
</g>
</g>
<defs>
<filter id="filter0_d_220_3" x="-12.2851" y="-23.7851" width="77.2603" height="77.2504" filterUnits="userSpaceOnUse" color-interpolation-filters="sRGB">
<feFlood flood-opacity="0" result="BackgroundImageFix"/>
<feColorMatrix in="SourceAlpha" type="matrix" values="0 0 0 0 0 0 0 0 0 0 0 0 0 0 0 0 0 0 127 0" result="hardAlpha"/>
<feOffset dx="8.59504" dy="8.59504"/>
<feGaussianBlur stdDeviation="17.1901"/>
<feColorMatrix type="matrix" values="0 0 0 0 0.15375 0 0 0 0 0.407475 0 0 0 0 0.9 0 0 0 0.25 0"/>
<feBlend mode="normal" in2="BackgroundImageFix" result="effect1_dropShadow_220_3"/>
<feBlend mode="normal" in="SourceGraphic" in2="effect1_dropShadow_220_3" result="shape"/>
</filter>
<filter id="filter1_d_220_3" x="-12.2851" y="-12.2851" width="77.2603" height="77.2603" filterUnits="userSpaceOnUse" color-interpolation-filters="sRGB">
<feFlood flood-opacity="0" result="BackgroundImageFix"/>
<feColorMatrix in="SourceAlpha" type="matrix" values="0 0 0 0 0 0 0 0 0 0 0 0 0 0 0 0 0 0 127 0" result="hardAlpha"/>
<feOffset dx="8.59504" dy="8.59504"/>
<feGaussianBlur stdDeviation="17.1901"/>
<feColorMatrix type="matrix" values="0 0 0 0 0.15375 0 0 0 0 0.407475 0 0 0 0 0.9 0 0 0 0.25 0"/>
<feBlend mode="normal" in2="BackgroundImageFix" result="effect1_dropShadow_220_3"/>
<feBlend mode="normal" in="SourceGraphic" in2="effect1_dropShadow_220_3" result="shape"/>
</filter>
<filter id="filter2_d_220_3" x="-23.7851" y="-23.7851" width="77.2603" height="77.2504" filterUnits="userSpaceOnUse" color-interpolation-filters="sRGB">
<feFlood flood-opacity="0" result="BackgroundImageFix"/>
<feColorMatrix in="SourceAlpha" type="matrix" values="0 0 0 0 0 0 0 0 0 0 0 0 0 0 0 0 0 0 127 0" result="hardAlpha"/>
<feOffset dx="8.59504" dy="8.59504"/>
<feGaussianBlur stdDeviation="17.1901"/>
<feColorMatrix type="matrix" values="0 0 0 0 0.15375 0 0 0 0 0.407475 0 0 0 0 0.9 0 0 0 0.25 0"/>
<feBlend mode="normal" in2="BackgroundImageFix" result="effect1_dropShadow_220_3"/>
<feBlend mode="normal" in="SourceGraphic" in2="effect1_dropShadow_220_3" result="shape"/>
</filter>
<filter id="filter3_d_220_3" x="-23.7851" y="-12.2851" width="77.2603" height="77.2603" filterUnits="userSpaceOnUse" color-interpolation-filters="sRGB">
<feFlood flood-opacity="0" result="BackgroundImageFix"/>
<feColorMatrix in="SourceAlpha" type="matrix" values="0 0 0 0 0 0 0 0 0 0 0 0 0 0 0 0 0 0 127 0" result="hardAlpha"/>
<feOffset dx="8.59504" dy="8.59504"/>
<feGaussianBlur stdDeviation="17.1901"/>
<feColorMatrix type="matrix" values="0 0 0 0 0.15375 0 0 0 0 0.407475 0 0 0 0 0.9 0 0 0 0.25 0"/>
<feBlend mode="normal" in2="BackgroundImageFix" result="effect1_dropShadow_220_3"/>
<feBlend mode="normal" in="SourceGraphic" in2="effect1_dropShadow_220_3" result="shape"/>
</filter>
<clipPath id="clip0_220_3">
<rect width="24" height="24" fill="white"/>
</clipPath>
</defs>
</svg>
