<svg width="24" height="25" viewBox="0 0 24 25" fill="none" xmlns="http://www.w3.org/2000/svg">
<path d="M19.3419 15.3992L18.3419 13.7392C18.1319 13.3692 17.9419 12.6692 17.9419 12.2592V9.72918C17.9419 7.37918 16.5619 5.34918 14.5719 4.39918C14.0519 3.47918 13.0919 2.90918 11.9919 2.90918C10.9019 2.90918 9.9219 3.49918 9.4019 4.42918C7.4519 5.39918 6.1019 7.40918 6.1019 9.72918V12.2592C6.1019 12.6692 5.9119 13.3692 5.7019 13.7292L4.6919 15.3992C4.2919 16.0692 4.2019 16.8092 4.4519 17.4892C4.6919 18.1592 5.2619 18.6792 6.0019 18.9292C7.9419 19.5892 9.9819 19.9092 12.0219 19.9092C14.0619 19.9092 16.1019 19.5892 18.0419 18.9392C18.7419 18.7092 19.2819 18.1792 19.5419 17.4892C19.8019 16.7992 19.7319 16.0392 19.3419 15.3992Z" fill="#CBD0E4"/>
<path d="M14.8297 20.9192C14.4097 22.0792 13.2997 22.9092 11.9997 22.9092C11.2097 22.9092 10.4297 22.5892 9.87969 22.0192C9.55969 21.7192 9.31969 21.3192 9.17969 20.9092C9.30969 20.9292 9.43969 20.9392 9.57969 20.9592C9.80969 20.9892 10.0497 21.0192 10.2897 21.0392C10.8597 21.0892 11.4397 21.1192 12.0197 21.1192C12.5897 21.1192 13.1597 21.0892 13.7197 21.0392C13.9297 21.0192 14.1397 21.0092 14.3397 20.9792C14.4997 20.9592 14.6597 20.9392 14.8297 20.9192Z" fill="#CBD0E4"/>
</svg>
