<svg width="20" height="21" viewBox="0 0 20 21" fill="none" xmlns="http://www.w3.org/2000/svg">
<path d="M20 16.7636C20 17.1236 19.9199 17.4936 19.7496 17.8536C19.5794 18.2136 19.359 18.5536 19.0686 18.8736C18.5779 19.4136 18.0371 19.8036 17.4261 20.0536C16.8252 20.3036 16.1743 20.4336 15.4732 20.4336C14.4517 20.4336 13.36 20.1936 12.2083 19.7036C11.0566 19.2136 9.90486 18.5536 8.76314 17.7236C7.61142 16.8836 6.51978 15.9536 5.47822 14.9236C4.44667 13.8836 3.51527 12.7936 2.68403 11.6536C1.86279 10.5136 1.2018 9.37359 0.721082 8.24359C0.240361 7.10359 0 6.01359 0 4.97359C0 4.29359 0.12018 3.64359 0.360541 3.04359C0.600901 2.43359 0.981472 1.87359 1.51227 1.37359C2.15323 0.743594 2.85428 0.433594 3.59539 0.433594C3.87581 0.433594 4.15623 0.493594 4.40661 0.613594C4.667 0.733594 4.89735 0.913594 5.07762 1.17359L7.4011 4.44359C7.58137 4.69359 7.71157 4.92359 7.8017 5.14359C7.89184 5.35359 7.94191 5.56359 7.94191 5.75359C7.94191 5.99359 7.87181 6.23359 7.7316 6.46359C7.6014 6.69359 7.41112 6.93359 7.17076 7.17359L6.40961 7.96359C6.29945 8.07359 6.24937 8.20359 6.24937 8.36359C6.24937 8.44359 6.25939 8.51359 6.27942 8.59359C6.30946 8.67359 6.33951 8.73359 6.35954 8.79359C6.53981 9.12359 6.85028 9.55359 7.29094 10.0736C7.74161 10.5936 8.22233 11.1236 8.74311 11.6536C9.28393 12.1836 9.80471 12.6736 10.3355 13.1236C10.8563 13.5636 11.2869 13.8636 11.6274 14.0436C11.6775 14.0636 11.7376 14.0936 11.8077 14.1236C11.8878 14.1536 11.968 14.1636 12.0581 14.1636C12.2283 14.1636 12.3585 14.1036 12.4687 13.9936L13.2298 13.2436C13.4802 12.9936 13.7206 12.8036 13.9509 12.6836C14.1813 12.5436 14.4116 12.4736 14.662 12.4736C14.8523 12.4736 15.0526 12.5136 15.2729 12.6036C15.4932 12.6936 15.7236 12.8236 15.974 12.9936L19.2889 15.3436C19.5493 15.5236 19.7296 15.7336 19.8398 15.9836C19.9399 16.2336 20 16.4836 20 16.7636Z" fill="#E7FFEF"/>
</svg>
