<svg width="20" height="20" viewBox="0 0 20 20" fill="none" xmlns="http://www.w3.org/2000/svg">
<g clip-path="url(#clip0_406_15482)">
<path d="M18.5273 19.167C18.3623 19.167 18.1973 19.1028 18.0781 18.9837L16.3731 17.2787C16.1256 17.0312 16.1256 16.6278 16.3731 16.3712C16.6206 16.1237 17.024 16.1237 17.2806 16.3712L18.9856 18.0762C19.2331 18.3237 19.2331 18.727 18.9856 18.9837C18.8573 19.1028 18.6923 19.167 18.5273 19.167Z" fill="#4067F0" stroke="#4067F0"/>
<path d="M9.4502 1.19995C4.89967 1.19995 1.2002 4.89943 1.2002 9.44995C1.2002 14.0005 4.89967 17.7 9.4502 17.7C14.0007 17.7 17.7002 14.0005 17.7002 9.44995C17.7002 4.89943 14.0007 1.19995 9.4502 1.19995Z" fill="#4067F0"/>
<path d="M9.69026 13.2668C9.55936 13.3113 9.34376 13.3113 9.21286 13.2668C8.09636 12.8997 5.60156 11.3684 5.60156 8.77289C5.60156 7.62716 6.56021 6.7002 7.74216 6.7002C8.44286 6.7002 9.06271 7.02649 9.45156 7.53076C9.84041 7.02649 10.4641 6.7002 11.161 6.7002C12.3429 6.7002 13.3016 7.62716 13.3016 8.77289C13.3016 11.3684 10.8068 12.8997 9.69026 13.2668Z" fill="white"/>
</g>
<defs>
<clipPath id="clip0_406_15482">
<rect width="20" height="20" fill="white"/>
</clipPath>
</defs>
</svg>
