<svg width="38" height="6" viewBox="0 0 38 6" fill="none" xmlns="http://www.w3.org/2000/svg">
<g clip-path="url(#clip0_301_12)">
<path fill-rule="evenodd" clip-rule="evenodd" d="M143.5 -60C161.725 -60 176.5 -45.2254 176.5 -27C176.5 -8.7746 161.725 6 143.5 6H38V0L20.9444 -1.04512e-07C20.6483 -0.0143278 20.3517 -0.0143278 20.0556 -1.14495e-07L0 0V5.88703C-0.991495 5.96218 -1.98732 6 -2.98542 6H-760C-778.225 6 -793 -8.7746 -793 -27C-793 -45.2254 -778.225 -60 -760 -60H-2.25856C3.53157 -60 9.27278 -58.9401 14.6813 -56.8728L16.9296 -56.0134C19.2287 -55.1346 21.7713 -55.1346 24.0705 -56.0134L33.0469 -59.4446C34.0075 -59.8118 35.0272 -60 36.0556 -60H143.5ZM0 5.88703V6H36.1847C35.0773 6 33.9856 5.73785 32.999 5.23501L24.6718 0.991045C23.4971 0.392354 22.2258 0.0620058 20.9444 -1.04512e-07L20.0556 -1.14495e-07C18.7742 0.0620057 17.5029 0.392354 16.3282 0.991045L14.9511 1.69286C10.2853 4.07083 5.20225 5.49273 0 5.88703Z" fill="#E4E7F3"/>
</g>
<defs>
<clipPath id="clip0_301_12">
<rect width="38" height="6" fill="white"/>
</clipPath>
</defs>
</svg>
