<svg width="38" height="5" viewBox="0 0 38 5" fill="none" xmlns="http://www.w3.org/2000/svg">
<g clip-path="url(#clip0_301_12)">
<path fill-rule="evenodd" clip-rule="evenodd" d="M144.5 0C162.725 0 177.5 14.7746 177.5 33C177.5 51.2254 162.725 66 144.5 66H37.1847C36.0773 66 34.9856 65.7379 33.999 65.235L25.6718 60.991C23.051 59.6553 19.949 59.6553 17.3282 60.991L15.9511 61.6929C10.396 64.524 4.24956 66 -1.98542 66H-759C-777.225 66 -792 51.2254 -792 33C-792 14.7746 -777.225 0 -759 0H-1.25856C-0.838744 0 -0.41919 0.00557166 0 0.016695V5H38V0H144.5ZM37.0556 0H0V0.016695C5.36235 0.158987 10.6649 1.20976 15.6813 3.1272L17.9296 3.98658C20.2287 4.86542 22.7713 4.86542 25.0705 3.98658L34.0469 0.555425C35.0075 0.188244 36.0272 0 37.0556 0Z" fill="#E4E7F3"/>
</g>
<defs>
<clipPath id="clip0_301_12">
<rect width="38" height="5" fill="white"/>
</clipPath>
</defs>
</svg>
