<svg width="22" height="22" viewBox="0 0 22 22" fill="none" xmlns="http://www.w3.org/2000/svg">
<path d="M17.7301 13.2822L16.8134 11.7605C16.6209 11.4213 16.4467 10.7797 16.4467 10.4038V8.08467C16.4467 5.93051 15.1817 4.06967 13.3576 3.19884C12.8809 2.35551 12.0009 1.83301 10.9926 1.83301C9.9934 1.83301 9.09507 2.37384 8.6184 3.22634C6.8309 4.11551 5.5934 5.95801 5.5934 8.08467V10.4038C5.5934 10.7797 5.41924 11.4213 5.22674 11.7513L4.3009 13.2822C3.93424 13.8963 3.85174 14.5747 4.0809 15.198C4.3009 15.8122 4.8234 16.2888 5.50174 16.518C7.28007 17.123 9.15007 17.4163 11.0201 17.4163C12.8901 17.4163 14.7601 17.123 16.5384 16.5272C17.1801 16.3163 17.6751 15.8305 17.9134 15.198C18.1517 14.5655 18.0876 13.8688 17.7301 13.2822Z" fill="#4067F0"/>
<path d="M13.5932 18.3422C13.2082 19.4055 12.1907 20.1663 10.9991 20.1663C10.2749 20.1663 9.5599 19.873 9.05573 19.3505C8.7624 19.0755 8.5424 18.7088 8.41406 18.333C8.53323 18.3513 8.6524 18.3605 8.78073 18.3788C8.99156 18.4063 9.21156 18.4338 9.43156 18.4522C9.95406 18.498 10.4857 18.5255 11.0174 18.5255C11.5399 18.5255 12.0624 18.498 12.5757 18.4522C12.7682 18.4338 12.9607 18.4247 13.1441 18.3972C13.2907 18.3788 13.4374 18.3605 13.5932 18.3422Z" fill="#4067F0"/>
</svg>
