<svg width="22" height="22" viewBox="0 0 22 22" fill="none" xmlns="http://www.w3.org/2000/svg">
<path d="M15.582 1.83301H6.41536C3.88536 1.83301 1.83203 3.87717 1.83203 6.39801V11.8797V12.7963C1.83203 15.3172 3.88536 17.3613 6.41536 17.3613H7.79036C8.03786 17.3613 8.36787 17.5263 8.5237 17.728L9.8987 19.5522C10.5037 20.3588 11.4937 20.3588 12.0987 19.5522L13.4737 17.728C13.6479 17.4988 13.9229 17.3613 14.207 17.3613H15.582C18.112 17.3613 20.1654 15.3172 20.1654 12.7963V6.39801C20.1654 3.87717 18.112 1.83301 15.582 1.83301ZM7.33203 10.9997C6.8187 10.9997 6.41536 10.5872 6.41536 10.083C6.41536 9.57884 6.82786 9.16634 7.33203 9.16634C7.8362 9.16634 8.2487 9.57884 8.2487 10.083C8.2487 10.5872 7.84536 10.9997 7.33203 10.9997ZM10.9987 10.9997C10.4854 10.9997 10.082 10.5872 10.082 10.083C10.082 9.57884 10.4945 9.16634 10.9987 9.16634C11.5029 9.16634 11.9154 9.57884 11.9154 10.083C11.9154 10.5872 11.512 10.9997 10.9987 10.9997ZM14.6654 10.9997C14.152 10.9997 13.7487 10.5872 13.7487 10.083C13.7487 9.57884 14.1612 9.16634 14.6654 9.16634C15.1695 9.16634 15.582 9.57884 15.582 10.083C15.582 10.5872 15.1787 10.9997 14.6654 10.9997Z" fill="#4067F0"/>
</svg>
