<svg width="22" height="22" viewBox="0 0 22 22" fill="none" xmlns="http://www.w3.org/2000/svg">
<path d="M11.3667 9.98251C11.2921 9.97185 11.1961 9.97185 11.1109 9.98251C9.23463 9.91855 7.74219 8.38346 7.74219 6.49659C7.74219 4.56707 9.29859 3 11.2388 3C13.1683 3 14.7354 4.56707 14.7354 6.49659C14.7247 8.38346 13.2429 9.91855 11.3667 9.98251Z" fill="#4067F0" stroke="#4067F0" stroke-width="1.5" stroke-linecap="round" stroke-linejoin="round"/>
<path d="M18.4208 17.0188C18.1505 19.1779 14.0074 19.8118 11.2357 19.8118C8.46405 19.8118 4.66669 19.1779 4.05067 17.0188C3.7556 15.9847 4.79689 15.036 5.93755 14.2684C8.85848 12.3282 13.6343 12.3282 16.5339 14.2684C17.6746 15.036 18.4963 16.0663 18.4208 17.0188Z" fill="#4067F0" stroke="#4067F0" stroke-width="1.5" stroke-linecap="round" stroke-linejoin="round"/>
</svg>
