<svg width="30" height="30" viewBox="0 0 30 30" fill="none" xmlns="http://www.w3.org/2000/svg">
<g clip-path="url(#clip0_314_713)">
<g filter="url(#filter0_d_314_713)">
<path d="M27.5364 13.7052L25.7665 11.6944C25.4387 11.3126 25.1634 10.5999 25.1634 10.0908V7.92734C25.1634 6.57833 24.0227 5.47113 22.633 5.47113H20.4042C19.8798 5.47113 19.1324 5.20387 18.7391 4.88571L16.6676 3.16764C15.763 2.41678 14.2815 2.41678 13.3769 3.16764L11.2791 4.88571C10.8858 5.20387 10.1516 5.47113 9.62719 5.47113H7.35904C5.96931 5.47113 4.82868 6.57833 4.82868 7.92734V10.0908C4.82868 10.5872 4.56646 11.2999 4.2387 11.6816L2.46875 13.7052C1.70833 14.596 1.70833 16.0214 2.46875 16.8868L4.2387 18.9103C4.56646 19.2793 4.82868 20.0048 4.82868 20.5011V22.6773C4.82868 24.0263 5.96931 25.1335 7.35904 25.1335H9.6403C10.1516 25.1335 10.8989 25.4008 11.2923 25.7189L13.3637 27.437C14.2684 28.1879 15.7499 28.1879 16.6545 27.437L18.726 25.7189C19.1193 25.4008 19.8535 25.1335 20.378 25.1335H22.6068C23.9965 25.1335 25.1371 24.0263 25.1371 22.6773V20.5138C25.1371 20.0048 25.4125 19.2921 25.7402 18.9103L27.5102 16.8995C28.3099 16.0341 28.3099 14.596 27.5364 13.7052Z" fill="#34CE69"/>
<path d="M27.5364 13.7052L25.7665 11.6944C25.4387 11.3126 25.1634 10.5999 25.1634 10.0908V7.92734C25.1634 6.57833 24.0227 5.47113 22.633 5.47113H20.4042C19.8798 5.47113 19.1324 5.20387 18.7391 4.88571L16.6676 3.16764C15.763 2.41678 14.2815 2.41678 13.3769 3.16764L11.2791 4.88571C10.8858 5.20387 10.1516 5.47113 9.62719 5.47113H7.35904C5.96931 5.47113 4.82868 6.57833 4.82868 7.92734V10.0908C4.82868 10.5872 4.56646 11.2999 4.2387 11.6816L2.46875 13.7052C1.70833 14.596 1.70833 16.0214 2.46875 16.8868L4.2387 18.9103C4.56646 19.2793 4.82868 20.0048 4.82868 20.5011V22.6773C4.82868 24.0263 5.96931 25.1335 7.35904 25.1335H9.6403C10.1516 25.1335 10.8989 25.4008 11.2923 25.7189L13.3637 27.437C14.2684 28.1879 15.7499 28.1879 16.6545 27.437L18.726 25.7189C19.1193 25.4008 19.8535 25.1335 20.378 25.1335H22.6068C23.9965 25.1335 25.1371 24.0263 25.1371 22.6773V20.5138C25.1371 20.0048 25.4125 19.2921 25.7402 18.9103L27.5102 16.8995C28.3099 16.0341 28.3099 14.596 27.5364 13.7052Z" stroke="#F7F9FE" stroke-width="2.7"/>
</g>
<path d="M20.4047 11.3078L14.3907 18.2471L11.1523 14.5734" stroke="white" stroke-width="2.54458" stroke-linecap="round" stroke-linejoin="round"/>
</g>
<defs>
<filter id="filter0_d_314_713" x="-34.1503" y="-33.4443" width="121.445" height="120.626" filterUnits="userSpaceOnUse" color-interpolation-filters="sRGB">
<feFlood flood-opacity="0" result="BackgroundImageFix"/>
<feColorMatrix in="SourceAlpha" type="matrix" values="0 0 0 0 0 0 0 0 0 0 0 0 0 0 0 0 0 0 127 0" result="hardAlpha"/>
<feOffset dx="11.5663" dy="11.5663"/>
<feGaussianBlur stdDeviation="23.1325"/>
<feColorMatrix type="matrix" values="0 0 0 0 0.15375 0 0 0 0 0.45225 0 0 0 0 0.9 0 0 0 0.15 0"/>
<feBlend mode="normal" in2="BackgroundImageFix" result="effect1_dropShadow_314_713"/>
<feBlend mode="normal" in="SourceGraphic" in2="effect1_dropShadow_314_713" result="shape"/>
</filter>
<clipPath id="clip0_314_713">
<rect width="30" height="30" fill="white"/>
</clipPath>
</defs>
</svg>
