<svg width="25" height="31" viewBox="0 0 25 31" fill="none" xmlns="http://www.w3.org/2000/svg">
<path fill-rule="evenodd" clip-rule="evenodd" d="M4.87109 7.29776C4.87109 3.27247 8.14356 0 12.1689 0C16.1941 0 19.4666 3.27247 19.4666 7.29776C19.4513 11.2462 16.3631 14.4419 12.43 14.5802H12.3993H12.3225C12.2303 14.5648 12.1074 14.5648 11.9845 14.5802C7.9592 14.4419 4.87109 11.2462 4.87109 7.29776ZM3.02665 18.667C7.34385 15.8093 17.0383 15.8093 21.3248 18.667C23.2606 19.9575 24.3207 21.709 24.3361 23.5987C24.3361 25.5038 23.2606 27.2553 21.3248 28.5612C19.1739 30.0054 14.995 30.7275 12.1681 30.7275C9.34113 30.7275 5.16221 30.0054 3.01129 28.5612C1.07546 27.2706 0 25.5192 0 23.6294C0 21.7397 1.07546 19.9729 3.02665 18.667Z" fill="url(#paint0_radial_869_19671)"/>
<defs>
<radialGradient id="paint0_radial_869_19671" cx="0" cy="0" r="1" gradientUnits="userSpaceOnUse" gradientTransform="translate(-0.657731 -1.40926) rotate(54.6474) scale(43.1966 53.5616)">
<stop stop-color="white"/>
<stop offset="0.568588" stop-color="#E2E6F4"/>
<stop offset="1" stop-color="white"/>
</radialGradient>
</defs>
</svg>
