<svg width="15" height="18" viewBox="0 0 15 18" fill="none" xmlns="http://www.w3.org/2000/svg">
<path d="M14.7887 5.67529C13.9014 1.76188 10.4958 0 7.50422 0C7.50422 0 7.50422 0 7.49577 0C4.51267 0 1.09858 1.75341 0.21125 5.66682C-0.777485 10.0376 1.89294 13.7393 4.30985 16.0687C5.20563 16.9327 6.35493 18 7.50422 18C8.65352 18 9.80282 16.9327 10.6901 16.0687C13.1071 13.7393 15.7775 10.0461 14.7887 5.67529ZM7.50422 9.91906C6.0338 9.91906 4.84225 8.72471 4.84225 7.25082C4.84225 5.77694 6.0338 4.58259 7.50422 4.58259C8.97465 4.58259 10.1662 5.77694 10.1662 7.25082C10.1662 8.72471 8.97465 9.91906 7.50422 9.91906Z" fill="#CBD0E4"/>
</svg>
