<svg width="269" height="2" viewBox="0 0 269 2" fill="none" xmlns="http://www.w3.org/2000/svg">
<rect x="145" width="2" height="4" rx="1" transform="rotate(90 145 0)" fill="#D8DCE7"/>
<rect x="198" width="2" height="4" rx="1" transform="rotate(90 198 0)" fill="#D8DCE7"/>
<rect x="127" width="2" height="4" rx="1" transform="rotate(90 127 0)" fill="#D8DCE7"/>
<rect x="180" width="2" height="4" rx="1" transform="rotate(90 180 0)" fill="#D8DCE7"/>
<rect x="109" width="2" height="4" rx="1" transform="rotate(90 109 0)" fill="#D8DCE7"/>
<rect x="162" width="2" height="4" rx="1" transform="rotate(90 162 0)" fill="#D8DCE7"/>
<rect x="92" width="2" height="4" rx="1" transform="rotate(90 92 0)" fill="#D8DCE7"/>
<rect x="74" width="2" height="4" rx="1" transform="rotate(90 74 0)" fill="#D8DCE7"/>
<rect x="57" width="2" height="4" rx="1" transform="rotate(90 57 0)" fill="#D8DCE7"/>
<rect x="40" width="2" height="4" rx="1" transform="rotate(90 40 0)" fill="#D8DCE7"/>
<rect x="22" width="2" height="4" rx="1" transform="rotate(90 22 0)" fill="#D8DCE7"/>
<rect x="4" width="2" height="4" rx="1" transform="rotate(90 4 0)" fill="#D8DCE7"/>
<rect x="269" width="2" height="4" rx="1" transform="rotate(90 269 0)" fill="#D8DCE7"/>
<rect x="251" width="2" height="4" rx="1" transform="rotate(90 251 0)" fill="#D8DCE7"/>
<rect x="233" width="2" height="4" rx="1" transform="rotate(90 233 0)" fill="#D8DCE7"/>
<rect x="216" width="2" height="4" rx="1" transform="rotate(90 216 0)" fill="#D8DCE7"/>
</svg>
