<svg width="24" height="24" viewBox="0 0 24 24" fill="none" xmlns="http://www.w3.org/2000/svg">
<path d="M19.3419 13.3992L18.3419 11.7392C18.1319 11.3692 17.9419 10.6692 17.9419 10.2592V7.72918C17.9419 5.37918 16.5619 3.34918 14.5719 2.39918C14.0519 1.47918 13.0919 0.90918 11.9919 0.90918C10.9019 0.90918 9.9219 1.49918 9.4019 2.42918C7.4519 3.39918 6.1019 5.40918 6.1019 7.72918V10.2592C6.1019 10.6692 5.9119 11.3692 5.7019 11.7292L4.6919 13.3992C4.2919 14.0692 4.2019 14.8092 4.4519 15.4892C4.6919 16.1592 5.2619 16.6792 6.0019 16.9292C7.9419 17.5892 9.9819 17.9092 12.0219 17.9092C14.0619 17.9092 16.1019 17.5892 18.0419 16.9392C18.7419 16.7092 19.2819 16.1792 19.5419 15.4892C19.8019 14.7992 19.7319 14.0392 19.3419 13.3992Z" fill="#CBD0E4"/>
<path d="M14.8297 18.9192C14.4097 20.0792 13.2997 20.9092 11.9997 20.9092C11.2097 20.9092 10.4297 20.5892 9.87969 20.0192C9.55969 19.7192 9.31969 19.3192 9.17969 18.9092C9.30969 18.9292 9.43969 18.9392 9.57969 18.9592C9.80969 18.9892 10.0497 19.0192 10.2897 19.0392C10.8597 19.0892 11.4397 19.1192 12.0197 19.1192C12.5897 19.1192 13.1597 19.0892 13.7197 19.0392C13.9297 19.0192 14.1397 19.0092 14.3397 18.9792C14.4997 18.9592 14.6597 18.9392 14.8297 18.9192Z" fill="#CBD0E4"/>
</svg>
