<svg width="24" height="24" viewBox="0 0 24 24" fill="none" xmlns="http://www.w3.org/2000/svg">
<path d="M20.1 8.21994C18.29 8.21994 17.55 6.93994 18.45 5.36994C18.97 4.45994 18.66 3.29994 17.75 2.77994L16.02 1.78994C15.23 1.31994 14.21 1.59994 13.74 2.38994L13.63 2.57994C12.73 4.14994 11.25 4.14994 10.34 2.57994L10.23 2.38994C9.78 1.59994 8.76 1.31994 7.97 1.78994L6.24 2.77994C5.33 3.29994 5.02 4.46994 5.54 5.37994C6.45 6.93994 5.71 8.21994 3.9 8.21994C2.86 8.21994 2 9.06994 2 10.1199V11.8799C2 12.9199 2.85 13.7799 3.9 13.7799C5.71 13.7799 6.45 15.0599 5.54 16.6299C5.02 17.5399 5.33 18.6999 6.24 19.2199L7.97 20.2099C8.76 20.6799 9.78 20.3999 10.25 19.6099L10.36 19.4199C11.26 17.8499 12.74 17.8499 13.65 19.4199L13.76 19.6099C14.23 20.3999 15.25 20.6799 16.04 20.2099L17.77 19.2199C18.68 18.6999 18.99 17.5299 18.47 16.6299C17.56 15.0599 18.3 13.7799 20.11 13.7799C21.15 13.7799 22.01 12.9299 22.01 11.8799V10.1199C22 9.07994 21.15 8.21994 20.1 8.21994ZM12 14.2499C10.21 14.2499 8.75 12.7899 8.75 10.9999C8.75 9.20994 10.21 7.74994 12 7.74994C13.79 7.74994 15.25 9.20994 15.25 10.9999C15.25 12.7899 13.79 14.2499 12 14.2499Z" fill="#CBD0E4"/>
</svg>
