<svg width="16" height="16" viewBox="0 0 16 16" fill="none" xmlns="http://www.w3.org/2000/svg">
<path d="M7.27582 1.2595C7.56377 0.646092 8.43623 0.646093 8.72418 1.2595L10.2908 4.59684C10.4041 4.8381 10.63 5.00712 10.8935 5.04761L14.4622 5.59611C15.1056 5.69499 15.3678 6.47995 14.913 6.94571L12.2822 9.64019C12.1047 9.82194 12.0241 10.0772 12.065 10.3279L12.6787 14.0905C12.7863 14.7497 12.0865 15.2426 11.502 14.9194L8.38714 13.1969C8.14624 13.0637 7.85376 13.0637 7.61286 13.1969L4.49796 14.9194C3.91351 15.2426 3.21374 14.7497 3.32125 14.0905L3.93498 10.3279C3.97587 10.0772 3.89527 9.82194 3.71781 9.64019L1.08696 6.94571C0.632195 6.47995 0.89443 5.69499 1.53783 5.59611L5.10654 5.04761C5.36997 5.00712 5.59594 4.8381 5.70919 4.59684L7.27582 1.2595Z" fill="#4067F0"/>
</svg>
