<svg width="26" height="30" viewBox="0 0 26 30" fill="none" xmlns="http://www.w3.org/2000/svg">
<path d="M23.6392 6.28766L15.2242 1.4285C13.8501 0.635163 12.1501 0.635163 10.7617 1.4285L2.36088 6.28766C0.986718 7.081 0.136719 8.55433 0.136719 10.1552V19.8452C0.136719 21.4318 0.986718 22.9052 2.36088 23.7127L10.7759 28.5718C12.1501 29.3652 13.8501 29.3652 15.2384 28.5718L23.6534 23.7127C25.0276 22.9193 25.8776 21.446 25.8776 19.8452V10.1552C25.8634 8.55433 25.0134 7.09516 23.6392 6.28766ZM11.9376 8.97933C11.9376 8.3985 12.4192 7.91683 13.0001 7.91683C13.5809 7.91683 14.0626 8.3985 14.0626 8.97933V16.4168C14.0626 16.9977 13.5809 17.4793 13.0001 17.4793C12.4192 17.4793 11.9376 16.9977 11.9376 16.4168V8.97933ZM14.3034 21.5593C14.2326 21.7293 14.1334 21.8852 14.0059 22.0268C13.7367 22.296 13.3826 22.4377 13.0001 22.4377C12.8159 22.4377 12.6317 22.3952 12.4617 22.3243C12.2776 22.2535 12.1359 22.1543 11.9942 22.0268C11.8667 21.8852 11.7676 21.7293 11.6826 21.5593C11.6117 21.3893 11.5834 21.2052 11.5834 21.021C11.5834 20.6527 11.7251 20.2843 11.9942 20.0152C12.1359 19.8877 12.2776 19.7885 12.4617 19.7177C12.9859 19.491 13.6092 19.6185 14.0059 20.0152C14.1334 20.1568 14.2326 20.2985 14.3034 20.4827C14.3742 20.6527 14.4167 20.8368 14.4167 21.021C14.4167 21.2052 14.3742 21.3893 14.3034 21.5593Z" fill="url(#paint0_radial_1094_4415)"/>
<defs>
<radialGradient id="paint0_radial_1094_4415" cx="0" cy="0" r="1" gradientUnits="userSpaceOnUse" gradientTransform="translate(3.23379 -0.914615) rotate(54.8336) scale(38.9364 46.0257)">
<stop stop-color="#8EA5E0"/>
<stop offset="0.559667" stop-color="#3161DD"/>
<stop offset="1" stop-color="#7B9AEA"/>
</radialGradient>
</defs>
</svg>
