<svg width="17" height="17" viewBox="0 0 17 17" fill="none" xmlns="http://www.w3.org/2000/svg">
<path d="M9.65432 11.135C9.65432 11.7725 9.13724 12.2896 8.49974 12.2896C8.04641 12.2896 7.65682 12.0275 7.47266 11.6521L9.01682 10.1079C9.39224 10.2921 9.65432 10.6817 9.65432 11.135Z" fill="#4067F0"/>
<path d="M15.4214 1.57942C15.2089 1.36692 14.8618 1.36692 14.6493 1.57942L12.6589 3.56984C12.1134 2.139 10.718 1.4165 8.50094 1.4165C4.51302 1.4165 4.0526 3.95234 4.0526 5.86484V6.75025C4.05969 6.75025 4.06677 6.75025 4.07385 6.75025C2.06927 6.99109 1.4176 7.98984 1.4176 10.4761V11.7936C1.4176 12.9269 1.55219 13.7486 1.89219 14.3365L1.57344 14.6553C1.36094 14.8678 1.36094 15.2148 1.57344 15.4273C1.68677 15.5265 1.82135 15.5832 1.96302 15.5832C2.10469 15.5832 2.23927 15.5265 2.34552 15.4203L15.4214 2.34442C15.6409 2.13192 15.6409 1.79192 15.4214 1.57942ZM5.20719 6.6865C5.15052 6.6865 5.10094 6.6865 5.04427 6.6865V5.86484C5.04427 3.78942 5.63219 2.40817 8.50094 2.40817C10.9093 2.40817 11.6672 3.329 11.8797 4.35609L9.54927 6.6865H5.20719Z" fill="#4067F0"/>
<path d="M15.5834 10.4762V11.7937C15.5834 14.6979 14.698 15.5833 11.7938 15.5833H5.24881C4.61839 15.5833 4.30672 14.8183 4.75297 14.372L6.75047 12.3745C6.80006 12.4454 6.85672 12.5091 6.91339 12.5729C7.40922 13.1112 8.14589 13.3945 8.96047 13.2245C9.02422 13.2104 9.08797 13.1962 9.15172 13.1679C9.21547 13.1537 9.27214 13.1324 9.32881 13.1041C9.47047 13.0545 9.60506 12.9766 9.73256 12.8845C9.78214 12.8562 9.82464 12.8208 9.86006 12.7854C9.96631 12.7004 10.0655 12.6012 10.1505 12.4949C10.1859 12.4595 10.2213 12.417 10.2496 12.3674C10.3417 12.2399 10.4196 12.1054 10.4692 11.9637C10.4976 11.907 10.5188 11.8504 10.533 11.7866C10.5613 11.7229 10.5755 11.6591 10.5896 11.5954C10.7596 10.7808 10.4763 10.0441 9.93797 9.54827C9.88131 9.49161 9.81047 9.43494 9.73964 9.38536L11.9496 7.17536C11.9851 7.13994 12.0134 7.11161 12.0488 7.08328C12.3321 6.84953 12.6934 6.73619 13.0546 6.76453C13.1184 6.77161 13.1892 6.77869 13.253 6.79286C13.3734 6.81411 13.4938 6.84244 13.6071 6.87078C13.7205 6.89911 13.8267 6.93453 13.933 6.96994C14.1384 7.04786 14.3155 7.13994 14.4784 7.24619C14.6413 7.35244 14.7759 7.47994 14.9034 7.62869C14.9671 7.70661 15.0309 7.79161 15.0805 7.88369C15.1301 7.96161 15.1726 8.04661 15.2151 8.13869C15.2576 8.23077 15.293 8.32994 15.3284 8.42911C15.3709 8.54952 15.4063 8.68411 15.4346 8.82578C15.463 8.92494 15.4771 9.03119 15.4984 9.14453C15.5126 9.25078 15.5267 9.36411 15.5409 9.48453C15.5692 9.78203 15.5834 10.1149 15.5834 10.4762Z" fill="#4067F0"/>
</svg>
