<svg width="16" height="16" viewBox="0 0 16 16" fill="none" xmlns="http://www.w3.org/2000/svg">
<path d="M14.0471 3.48683C12.9738 3.38016 11.9004 3.30016 10.8204 3.24016V3.2335L10.6738 2.36683C10.5738 1.7535 10.4271 0.833496 8.8671 0.833496H7.12043C5.5671 0.833496 5.42043 1.7135 5.31376 2.36016L5.17376 3.2135C4.55376 3.2535 3.93376 3.2935 3.31376 3.3535L1.95376 3.48683C1.67376 3.5135 1.47376 3.76016 1.50043 4.0335C1.5271 4.30683 1.7671 4.50683 2.0471 4.48016L3.4071 4.34683C6.90043 4.00016 10.4204 4.1335 13.9538 4.48683C13.9738 4.48683 13.9871 4.48683 14.0071 4.48683C14.2604 4.48683 14.4804 4.2935 14.5071 4.0335C14.5271 3.76016 14.3271 3.5135 14.0471 3.48683Z" fill="#F04075"/>
<path d="M12.8192 5.4265C12.6592 5.25984 12.4392 5.1665 12.2125 5.1665H3.78585C3.55918 5.1665 3.33252 5.25984 3.17918 5.4265C3.02585 5.59317 2.93918 5.81984 2.95252 6.05317L3.36585 12.8932C3.43918 13.9065 3.53252 15.1732 5.85918 15.1732H10.1392C12.4658 15.1732 12.5592 13.9132 12.6325 12.8932L13.0458 6.05984C13.0592 5.81984 12.9725 5.59317 12.8192 5.4265ZM9.10585 11.8332H6.88585C6.61252 11.8332 6.38585 11.6065 6.38585 11.3332C6.38585 11.0598 6.61252 10.8332 6.88585 10.8332H9.10585C9.37918 10.8332 9.60585 11.0598 9.60585 11.3332C9.60585 11.6065 9.37918 11.8332 9.10585 11.8332ZM9.66585 9.1665H6.33252C6.05918 9.1665 5.83252 8.93984 5.83252 8.6665C5.83252 8.39317 6.05918 8.1665 6.33252 8.1665H9.66585C9.93918 8.1665 10.1658 8.39317 10.1658 8.6665C10.1658 8.93984 9.93918 9.1665 9.66585 9.1665Z" fill="#F04075"/>
</svg>
