<svg width="18" height="18" viewBox="0 0 18 18" fill="none" xmlns="http://www.w3.org/2000/svg">
<path d="M14.632 4.3875L10.177 1.815C9.44945 1.395 8.54945 1.395 7.81445 1.815L3.36695 4.3875C2.63945 4.8075 2.18945 5.5875 2.18945 6.435V11.565C2.18945 12.405 2.63945 13.185 3.36695 13.6125L7.82195 16.185C8.54945 16.605 9.44945 16.605 10.1845 16.185L14.6395 13.6125C15.367 13.1925 15.817 12.4125 15.817 11.565V6.435C15.8095 5.5875 15.3595 4.815 14.632 4.3875ZM8.43695 5.8125C8.43695 5.505 8.69195 5.25 8.99945 5.25C9.30695 5.25 9.56195 5.505 9.56195 5.8125V9.75C9.56195 10.0575 9.30695 10.3125 8.99945 10.3125C8.69195 10.3125 8.43695 10.0575 8.43695 9.75V5.8125ZM9.68945 12.4725C9.65195 12.5625 9.59945 12.645 9.53195 12.72C9.38945 12.8625 9.20195 12.9375 8.99945 12.9375C8.90195 12.9375 8.80445 12.915 8.71445 12.8775C8.61695 12.84 8.54195 12.7875 8.46695 12.72C8.39945 12.645 8.34695 12.5625 8.30195 12.4725C8.26445 12.3825 8.24945 12.285 8.24945 12.1875C8.24945 11.9925 8.32445 11.7975 8.46695 11.655C8.54195 11.5875 8.61695 11.535 8.71445 11.4975C8.99195 11.3775 9.32195 11.445 9.53195 11.655C9.59945 11.73 9.65195 11.805 9.68945 11.9025C9.72695 11.9925 9.74945 12.09 9.74945 12.1875C9.74945 12.285 9.72695 12.3825 9.68945 12.4725Z" fill="#F04075"/>
</svg>
