<svg width="19" height="19" viewBox="0 0 19 19" fill="none" xmlns="http://www.w3.org/2000/svg">
<path d="M13.2609 2.8185V1.5835C13.2609 1.25891 12.9918 0.989746 12.6672 0.989746C12.3426 0.989746 12.0734 1.25891 12.0734 1.5835V2.771H6.92759V1.5835C6.92759 1.25891 6.65842 0.989746 6.33384 0.989746C6.00926 0.989746 5.74009 1.25891 5.74009 1.5835V2.8185C3.60259 3.01641 2.56551 4.291 2.40717 6.18308C2.39134 6.41266 2.58134 6.60266 2.80301 6.60266H16.198C16.4276 6.60266 16.6176 6.40475 16.5938 6.18308C16.4355 4.291 15.3984 3.01641 13.2609 2.8185Z" fill="#CBD0E4"/>
<path d="M15.8333 7.79004H3.16667C2.73125 7.79004 2.375 8.14629 2.375 8.58171V13.4584C2.375 15.8334 3.5625 17.4167 6.33333 17.4167H12.6667C15.4375 17.4167 16.625 15.8334 16.625 13.4584V8.58171C16.625 8.14629 16.2688 7.79004 15.8333 7.79004ZM7.29125 14.4163C7.25167 14.448 7.21208 14.4875 7.1725 14.5113C7.125 14.543 7.0775 14.5667 7.03 14.5825C6.9825 14.6063 6.935 14.6221 6.8875 14.63C6.83208 14.638 6.78458 14.6459 6.72917 14.6459C6.62625 14.6459 6.52333 14.6221 6.42833 14.5825C6.32542 14.543 6.24625 14.4875 6.16708 14.4163C6.02458 14.2659 5.9375 14.06 5.9375 13.8542C5.9375 13.6484 6.02458 13.4425 6.16708 13.2921C6.24625 13.2209 6.32542 13.1655 6.42833 13.1259C6.57083 13.0625 6.72917 13.0467 6.8875 13.0784C6.935 13.0863 6.9825 13.1021 7.03 13.1259C7.0775 13.1417 7.125 13.1655 7.1725 13.1971C7.21208 13.2288 7.25167 13.2605 7.29125 13.2921C7.43375 13.4425 7.52083 13.6484 7.52083 13.8542C7.52083 14.06 7.43375 14.2659 7.29125 14.4163ZM7.29125 11.6455C7.14083 11.788 6.935 11.875 6.72917 11.875C6.52333 11.875 6.3175 11.788 6.16708 11.6455C6.02458 11.495 5.9375 11.2892 5.9375 11.0834C5.9375 10.8775 6.02458 10.6717 6.16708 10.5213C6.38875 10.2996 6.73708 10.2284 7.03 10.355C7.13292 10.3946 7.22 10.45 7.29125 10.5213C7.43375 10.6717 7.52083 10.8775 7.52083 11.0834C7.52083 11.2892 7.43375 11.495 7.29125 11.6455ZM10.0621 14.4163C9.91167 14.5588 9.70583 14.6459 9.5 14.6459C9.29417 14.6459 9.08833 14.5588 8.93792 14.4163C8.79542 14.2659 8.70833 14.06 8.70833 13.8542C8.70833 13.6484 8.79542 13.4425 8.93792 13.2921C9.23083 12.9992 9.76917 12.9992 10.0621 13.2921C10.2046 13.4425 10.2917 13.6484 10.2917 13.8542C10.2917 14.06 10.2046 14.2659 10.0621 14.4163ZM10.0621 11.6455C10.0225 11.6771 9.98292 11.7088 9.94333 11.7405C9.89583 11.7721 9.84833 11.7959 9.80083 11.8117C9.75333 11.8355 9.70583 11.8513 9.65833 11.8592C9.60292 11.8671 9.55542 11.875 9.5 11.875C9.29417 11.875 9.08833 11.788 8.93792 11.6455C8.79542 11.495 8.70833 11.2892 8.70833 11.0834C8.70833 10.8775 8.79542 10.6717 8.93792 10.5213C9.00917 10.45 9.09625 10.3946 9.19917 10.355C9.49208 10.2284 9.84042 10.2996 10.0621 10.5213C10.2046 10.6717 10.2917 10.8775 10.2917 11.0834C10.2917 11.2892 10.2046 11.495 10.0621 11.6455ZM12.8329 14.4163C12.6825 14.5588 12.4767 14.6459 12.2708 14.6459C12.065 14.6459 11.8592 14.5588 11.7087 14.4163C11.5662 14.2659 11.4792 14.06 11.4792 13.8542C11.4792 13.6484 11.5662 13.4425 11.7087 13.2921C12.0017 12.9992 12.54 12.9992 12.8329 13.2921C12.9754 13.4425 13.0625 13.6484 13.0625 13.8542C13.0625 14.06 12.9754 14.2659 12.8329 14.4163ZM12.8329 11.6455C12.7933 11.6771 12.7537 11.7088 12.7142 11.7405C12.6667 11.7721 12.6192 11.7959 12.5717 11.8117C12.5242 11.8355 12.4767 11.8513 12.4292 11.8592C12.3737 11.8671 12.3183 11.875 12.2708 11.875C12.065 11.875 11.8592 11.788 11.7087 11.6455C11.5662 11.495 11.4792 11.2892 11.4792 11.0834C11.4792 10.8775 11.5662 10.6717 11.7087 10.5213C11.7879 10.45 11.8671 10.3946 11.97 10.355C12.1125 10.2917 12.2708 10.2759 12.4292 10.3075C12.4767 10.3155 12.5242 10.3313 12.5717 10.355C12.6192 10.3709 12.6667 10.3946 12.7142 10.4263C12.7537 10.458 12.7933 10.4896 12.8329 10.5213C12.9754 10.6717 13.0625 10.8775 13.0625 11.0834C13.0625 11.2892 12.9754 11.495 12.8329 11.6455Z" fill="#CBD0E4"/>
</svg>
