<svg width="38" height="36" viewBox="0 0 38 36" fill="none" xmlns="http://www.w3.org/2000/svg">
<path d="M35.2518 16.1082L32.9562 13.5003C32.5311 13.0051 32.174 12.0808 32.174 11.4205V8.61453C32.174 6.8649 30.6946 5.42889 28.8922 5.42889H26.0015C25.3213 5.42889 24.3521 5.08227 23.8419 4.66962L21.1553 2.44132C19.982 1.46748 18.0605 1.46748 16.8872 2.44132L14.1665 4.66962C13.6564 5.08227 12.7042 5.42889 12.024 5.42889H9.08226C7.27981 5.42889 5.80044 6.8649 5.80044 8.61453V11.4205C5.80044 12.0643 5.46036 12.9886 5.03525 13.4838L2.73968 16.1082C1.75344 17.2636 1.75344 19.1123 2.73968 20.2347L5.03525 22.8591C5.46036 23.3378 5.80044 24.2786 5.80044 24.9223V27.7449C5.80044 29.4945 7.27981 30.9305 9.08226 30.9305H12.041C12.7042 30.9305 13.6734 31.2771 14.1835 31.6898L16.8702 33.9181C18.0435 34.8919 19.965 34.8919 21.1383 33.9181L23.8249 31.6898C24.335 31.2771 25.2873 30.9305 25.9675 30.9305H28.8582C30.6606 30.9305 32.14 29.4945 32.14 27.7449V24.9389C32.14 24.2786 32.4971 23.3543 32.9222 22.8591L35.2178 20.2512C36.255 19.1288 36.255 17.2636 35.2518 16.1082Z" fill="#34CE69" stroke="#F7F9FE" stroke-width="2.7"/>
<path d="M26 13L18.2 22L14 17.2353" stroke="white" stroke-width="2.54458" stroke-linecap="round" stroke-linejoin="round"/>
</svg>
