<svg width="16" height="15" viewBox="0 0 16 15" fill="none" xmlns="http://www.w3.org/2000/svg">
<path d="M7.27582 0.5427C7.56377 -0.0707044 8.43623 -0.0707036 8.72418 0.542701L10.2908 3.88004C10.4041 4.12131 10.63 4.29032 10.8935 4.33081L14.4622 4.87931C15.1056 4.9782 15.3678 5.76315 14.913 6.22891L12.2822 8.9234C12.1047 9.10514 12.0241 9.36037 12.065 9.61107L12.6787 13.3737C12.7863 14.0329 12.0865 14.5258 11.502 14.2026L8.38714 12.4801C8.14624 12.3469 7.85376 12.3469 7.61286 12.4801L4.49796 14.2026C3.91351 14.5258 3.21374 14.0329 3.32125 13.3737L3.93498 9.61107C3.97587 9.36037 3.89527 9.10514 3.71781 8.9234L1.08696 6.22891C0.632195 5.76315 0.89443 4.9782 1.53783 4.87931L5.10654 4.33081C5.36997 4.29032 5.59594 4.12131 5.70919 3.88004L7.27582 0.5427Z" fill="#EF4176"/>
</svg>
