<svg width="298" height="163" viewBox="0 0 298 163" fill="none" xmlns="http://www.w3.org/2000/svg">
<rect width="298" height="163" rx="20" fill="#E4E7F3"/>
<path d="M132.692 110L150.727 96.1267L150.168 95.9034C147.144 94.6935 144.557 92.5945 142.75 89.8838L132.692 110Z" fill="#C0C7DF"/>
<path d="M159.405 57.0041C156.264 60.9255 155.093 71.0809 162.244 73.0666C168.981 78.3542 174.664 75.8114 178.076 72.4573C178.988 71.5601 178.935 70.5853 179.271 69.3836V69.3836C180.308 65.6694 177.762 61.8388 173.618 58.8658C170.466 56.6038 166.334 55.3089 163.187 55.9052C161.174 56.2864 160.63 55.4748 159.405 57.0041Z" fill="#E4E7F3"/>
<path d="M143.446 71.1533C140.145 76.6507 145.643 85.3582 152.467 89.4561C158.175 92.8841 164.532 92.8765 168.391 89.5643C169.928 88.245 172.273 87.3751 172.58 85.3731V85.3731C173.338 80.4282 169.893 72.8336 164.422 69.5481C160.26 67.0483 152.067 66.488 148.302 67.685C145.895 68.4503 144.734 69.0093 143.446 71.1533Z" fill="#E4E7F3"/>
<path fill-rule="evenodd" clip-rule="evenodd" d="M152.465 89.4574C145.641 85.3595 142.786 77.581 146.087 72.0835C147.373 69.9429 148.855 67.9018 151.255 67.1338C146.619 67.4574 142.533 69.5859 140.277 73.3423C136.146 80.2216 139.719 89.9554 148.258 95.0833C156.797 100.211 167.068 98.7915 171.2 91.9122C172.821 89.2115 173.256 86.0709 172.669 82.9418C171.95 86.3228 169.465 89.3693 166.367 90.8966C162.521 92.793 157.264 92.3392 152.465 89.4574Z" fill="#C0C7DF"/>
<ellipse rx="12.255" ry="9.68013" transform="matrix(-0.812486 -0.58298 -0.625147 0.780507 169.671 63.6581)" fill="#C0C7DF"/>
<path fill-rule="evenodd" clip-rule="evenodd" d="M174.498 74.769L170.145 83.4748C169.298 85.8132 167.458 87.8442 165.24 88.9376C162.046 90.5126 157.68 90.1357 153.694 87.7424C148.027 84.3391 145.656 77.879 148.397 73.3133C149.184 72.0027 150.06 70.737 151.265 69.9067L157.049 64.123C157.494 67.542 159.81 71.0254 163.499 73.2411C167.264 75.5021 171.357 75.9956 174.498 74.769Z" fill="#C0C7DF"/>
</svg>
